<svg xmlns="http://www.w3.org/2000/svg" xmlns:xlink="http://www.w3.org/1999/xlink" width="40" zoomAndPan="magnify" viewBox="0 0 30 30.000001" height="40" preserveAspectRatio="xMidYMid meet" version="1.0"><defs><clipPath id="0e951be4de"><path d="M 5 20.511719 L 25 20.511719 L 25 26 L 5 26 Z M 5 20.511719 " clip-rule="nonzero"/></clipPath><clipPath id="bb52efb0cc"><path d="M 5 26 L 26 26 L 26 26.316406 L 5 26.316406 Z M 5 26 " clip-rule="nonzero"/></clipPath><clipPath id="ca2c9e2f0c"><path d="M 3.039062 4.066406 L 27.492188 4.066406 L 27.492188 15.652344 L 3.039062 15.652344 Z M 3.039062 4.066406 " clip-rule="nonzero"/></clipPath><clipPath id="edd4859376"><path d="M 16.339844 4.484375 L 27.308594 14.664062 C 27.480469 14.824219 27.535156 15.074219 27.449219 15.292969 C 27.367188 15.511719 27.15625 15.652344 26.921875 15.652344 L 3.632812 15.652344 C 3.398438 15.652344 3.191406 15.511719 3.105469 15.292969 C 3.019531 15.074219 3.074219 14.824219 3.246094 14.664062 L 14.214844 4.484375 C 14.8125 3.929688 15.742188 3.929688 16.339844 4.484375 Z M 16.339844 4.484375 " clip-rule="nonzero"/></clipPath><clipPath id="9bb5ead865"><path d="M 6.027344 14.597656 L 24.851562 14.597656 L 24.851562 21.484375 L 6.027344 21.484375 Z M 6.027344 14.597656 " clip-rule="nonzero"/></clipPath></defs><g clip-path="url(#0e951be4de)"><path fill="#382213" d="M 24.171875 25.824219 C 24.496094 25.824219 24.757812 25.5625 24.757812 25.242188 L 24.757812 20.410156 L 5.980469 20.410156 L 5.980469 25.242188 C 5.980469 25.5625 6.242188 25.824219 6.566406 25.824219 L 13.824219 25.824219 L 13.824219 23.347656 C 13.824219 22.496094 14.515625 21.804688 15.371094 21.804688 C 16.222656 21.804688 16.914062 22.496094 16.914062 23.347656 L 16.914062 25.824219 Z M 24.171875 25.824219 " fill-opacity="1" fill-rule="nonzero"/></g><g clip-path="url(#bb52efb0cc)"><path fill="#382213" d="M 23.644531 29.476562 L 24.554688 29.476562 C 24.664062 29.476562 24.757812 29.382812 24.757812 29.273438 L 24.757812 27.636719 L 25.074219 27.636719 C 25.238281 27.636719 25.371094 27.503906 25.371094 27.339844 L 25.371094 26.816406 C 25.371094 26.652344 25.238281 26.519531 25.074219 26.519531 L 5.445312 26.519531 C 5.28125 26.519531 5.148438 26.652344 5.148438 26.816406 L 5.148438 27.339844 C 5.148438 27.503906 5.28125 27.636719 5.445312 27.636719 L 5.980469 27.636719 L 5.980469 29.273438 C 5.980469 29.382812 6.074219 29.476562 6.1875 29.476562 L 7.09375 29.476562 C 7.207031 29.476562 7.296875 29.382812 7.296875 29.273438 L 7.296875 27.636719 L 14.710938 27.636719 L 14.710938 29.273438 C 14.710938 29.382812 14.804688 29.476562 14.914062 29.476562 L 15.824219 29.476562 C 15.9375 29.476562 16.027344 29.382812 16.027344 29.273438 L 16.027344 27.636719 L 23.441406 27.636719 L 23.441406 29.273438 C 23.441406 29.382812 23.53125 29.476562 23.644531 29.476562 Z M 23.644531 29.476562 " fill-opacity="1" fill-rule="nonzero"/></g><g clip-path="url(#ca2c9e2f0c)"><g clip-path="url(#edd4859376)"><path fill="#382213" d="M 2.183594 3.496094 L 28.394531 3.496094 L 28.394531 15.652344 L 2.183594 15.652344 Z M 2.183594 3.496094 " fill-opacity="1" fill-rule="nonzero"/></g></g><g clip-path="url(#9bb5ead865)"><path fill="#382213" d="M 6.027344 14.597656 L 24.847656 14.597656 L 24.847656 21.484375 L 6.027344 21.484375 Z M 6.027344 14.597656 " fill-opacity="1" fill-rule="nonzero"/></g></svg>