<svg xmlns="http://www.w3.org/2000/svg" xmlns:xlink="http://www.w3.org/1999/xlink" width="40" zoomAndPan="magnify" viewBox="0 0 30 30.000001" height="40" preserveAspectRatio="xMidYMid meet" version="1.0"><defs><clipPath id="5e34a1b2c4"><path d="M 10 7.695312 L 19.945312 7.695312 L 19.945312 20 L 10 20 Z M 10 7.695312 " clip-rule="nonzero"/></clipPath><clipPath id="f5391c44e7"><path d="M 9.78125 18 L 19.945312 18 L 19.945312 21.484375 L 9.78125 21.484375 Z M 9.78125 18 " clip-rule="nonzero"/></clipPath></defs><g clip-path="url(#5e34a1b2c4)"><path fill="#382213" d="M 15 13.976562 C 13.691406 13.976562 12.632812 12.917969 12.632812 11.609375 C 12.632812 10.304688 13.691406 9.246094 15 9.246094 C 16.304688 9.246094 17.363281 10.304688 17.363281 11.609375 C 17.363281 12.917969 16.304688 13.976562 15 13.976562 Z M 15 7.691406 C 12.667969 7.691406 10.78125 9.582031 10.78125 11.910156 C 10.78125 14.242188 15 19.964844 15 19.964844 C 15 19.964844 19.214844 14.242188 19.214844 11.910156 C 19.214844 9.582031 17.328125 7.691406 15 7.691406 " fill-opacity="1" fill-rule="nonzero"/></g><g clip-path="url(#f5391c44e7)"><path fill="#382213" d="M 18.578125 18.929688 C 17.996094 18.792969 17.296875 18.699219 16.535156 18.640625 C 16.433594 18.789062 16.339844 18.933594 16.25 19.066406 C 17.085938 19.113281 17.851562 19.214844 18.476562 19.359375 C 19.535156 19.601562 19.769531 19.871094 19.769531 19.957031 C 19.769531 20.039062 19.535156 20.308594 18.476562 20.550781 C 17.550781 20.765625 16.316406 20.882812 15 20.882812 C 13.683594 20.882812 12.445312 20.765625 11.519531 20.550781 C 10.460938 20.308594 10.230469 20.039062 10.230469 19.957031 C 10.230469 19.871094 10.460938 19.601562 11.519531 19.359375 C 12.152344 19.214844 12.925781 19.113281 13.769531 19.0625 C 13.679688 18.929688 13.582031 18.789062 13.484375 18.640625 C 12.714844 18.695312 12.007812 18.792969 11.421875 18.929688 C 10.335938 19.179688 9.789062 19.523438 9.789062 19.957031 C 9.789062 20.386719 10.335938 20.734375 11.421875 20.984375 C 12.378906 21.203125 13.648438 21.324219 15 21.324219 C 16.347656 21.324219 17.617188 21.203125 18.578125 20.984375 C 19.660156 20.734375 20.210938 20.386719 20.210938 19.957031 C 20.210938 19.523438 19.660156 19.179688 18.578125 18.929688 " fill-opacity="1" fill-rule="nonzero"/></g></svg>