<svg xmlns="http://www.w3.org/2000/svg" xmlns:xlink="http://www.w3.org/1999/xlink" width="40" zoomAndPan="magnify" viewBox="0 0 30 30.000001" height="40" preserveAspectRatio="xMidYMid meet" version="1.0"><defs><clipPath id="29a9108b4c"><path d="M 5.90625 5.421875 L 24.050781 5.421875 L 24.050781 23.566406 L 5.90625 23.566406 Z M 5.90625 5.421875 " clip-rule="nonzero"/></clipPath></defs><g clip-path="url(#29a9108b4c)"><path fill="#382213" d="M 14.992188 5.425781 C 20.015625 5.425781 24.085938 9.496094 24.085938 14.519531 C 24.085938 19.539062 20.015625 23.609375 14.992188 23.609375 C 9.972656 23.609375 5.902344 19.539062 5.902344 14.519531 C 5.902344 9.496094 9.972656 5.425781 14.992188 5.425781 Z M 14.992188 9.007812 C 15.683594 9.007812 16.242188 9.566406 16.242188 10.257812 C 16.242188 10.949219 15.683594 11.507812 14.992188 11.507812 C 14.304688 11.507812 13.746094 10.949219 13.746094 10.257812 C 13.746094 9.570312 14.304688 9.007812 14.992188 9.007812 Z M 13.859375 12.441406 L 16.128906 12.441406 L 16.128906 18.214844 L 17.035156 18.214844 L 17.035156 20.027344 L 12.949219 20.027344 L 12.949219 18.214844 L 13.859375 18.214844 L 13.859375 13.390625 L 12.949219 13.390625 L 12.949219 12.441406 Z M 14.992188 6.304688 C 10.457031 6.304688 6.78125 9.980469 6.78125 14.515625 C 6.78125 19.054688 10.457031 22.730469 14.992188 22.730469 C 19.53125 22.730469 23.207031 19.054688 23.207031 14.515625 C 23.207031 9.980469 19.53125 6.304688 14.992188 6.304688 Z M 14.992188 6.304688 " fill-opacity="1" fill-rule="nonzero"/></g></svg>