<svg xmlns="http://www.w3.org/2000/svg" xmlns:xlink="http://www.w3.org/1999/xlink" width="40" zoomAndPan="magnify" viewBox="0 0 30 30.000001" height="40" preserveAspectRatio="xMidYMid meet" version="1.0"><defs><clipPath id="aec0416e62"><path d="M 5.90625 6.003906 L 24.050781 6.003906 L 24.050781 24.148438 L 5.90625 24.148438 Z M 5.90625 6.003906 " clip-rule="nonzero"/></clipPath></defs><g clip-path="url(#aec0416e62)"><path fill="#382213" d="M 24.085938 15.09375 C 24.085938 20.132812 20.035156 24.183594 14.996094 24.183594 C 9.953125 24.183594 5.90625 20.132812 5.90625 15.09375 C 5.90625 10.050781 9.953125 6.003906 14.996094 6.003906 C 20.035156 6.003906 24.085938 10.050781 24.085938 15.09375 Z M 20.78125 12.984375 L 17.101562 12.984375 L 17.101562 9.308594 L 12.847656 9.308594 L 12.847656 12.984375 L 9.171875 12.984375 L 9.171875 17.242188 L 12.847656 17.242188 L 12.847656 20.875 L 17.101562 20.875 L 17.101562 17.199219 L 20.78125 17.199219 Z M 20.78125 12.984375 " fill-opacity="1" fill-rule="nonzero"/></g></svg>