<?xml version="1.0" encoding="UTF-8" standalone="no"?>
<svg
   width="4274"
   height="3976"
   viewBox="0 0 4274 3976"
   version="1.1"
   id="svg2"
   sodipodi:docname="Heart-hand-shake.svg"
   inkscape:version="1.3.2 (091e20e, 2023-11-25)"
   xmlns:inkscape="http://www.inkscape.org/namespaces/inkscape"
   xmlns:sodipodi="http://sodipodi.sourceforge.net/DTD/sodipodi-0.dtd"
   xmlns="http://www.w3.org/2000/svg"
   xmlns:svg="http://www.w3.org/2000/svg"
   xmlns:rdf="http://www.w3.org/1999/02/22-rdf-syntax-ns#"
   xmlns:cc="http://creativecommons.org/ns#"
   xmlns:dc="http://purl.org/dc/elements/1.1/">
  <defs
     id="defs2" />
  <sodipodi:namedview
     id="namedview2"
     pagecolor="#ffffff"
     bordercolor="#000000"
     borderopacity="0.25"
     inkscape:showpageshadow="2"
     inkscape:pageopacity="0.0"
     inkscape:pagecheckerboard="0"
     inkscape:deskcolor="#d1d1d1"
     inkscape:zoom="0.059356137"
     inkscape:cx="2139.6271"
     inkscape:cy="1979.5763"
     inkscape:window-width="1512"
     inkscape:window-height="826"
     inkscape:window-x="0"
     inkscape:window-y="748"
     inkscape:window-maximized="1"
     inkscape:current-layer="svg2" />
  <title
     id="title1">Heart handshake</title>
  <g
     transform="translate(0,3976)scale(1,-1)"
     id="g2">
    <path
       stroke-width="180"
       stroke-linecap="round"
       stroke="#000000"
       fill="none"
       d="m 2238.16,210.035 c -103,-102.998 -270,-98.496 -372.99,4.502 -103,102.998 -102.96,269.971 0.01,372.969 l 261.69,261.689 c 103,102.998 270,98.496 372.97,-4.502 103.01,-102.998 102.99,-269.97 0,-372.959 z m -376.53,376.524 c -103.01,-102.998 -269.99,-98.506 -372.97,4.492 -103.02,102.998 -102.99,269.99 0,372.978 l 261.68,261.681 c 103.02,103 270.02,98.5 372.99,-4.48 103,-103 102.98,-269.994 0,-372.992 z m -376.51,376.513 c -103.01,-102.998 -270,-98.486 -373,4.502 -102.99,103.006 -102.96,269.976 0.01,372.966 l 261.7,261.69 c 103,103.02 270,98.51 372.97,-4.49 103.02,-103 102.99,-269.99 0,-372.98 z M 1108.58,1339.6 c -103,-102.99 -269.986,-98.51 -372.974,4.49 -102.998,103 -102.979,269.99 0.009,372.98 l 261.685,261.7 c 103.02,102.99 269.99,98.49 372.99,-4.51 103,-102.99 102.97,-269.99 -0.01,-372.97 z m 1430.8,1719.79 -451.13,-451.52 c -219.3,-222.84 -563.3,-222.84 -775.5,-10.65 l 765.2,765.21 m -2.11,-2.11 c 457.38,457.38 1262.74,521.2 1720.12,63.83 457.38,-457.38 457.38,-1198.93 0,-1656.3 M 2546.84,3054.77 3702.81,1898.79 c 103.02,-102.99 98.52,-269.98 -4.5,-372.96 -102.98,-103.01 -269.98,-102.98 -372.97,0.01 m -777.63,775.04 778.59,-778.6 c 103,-103.02 98.5,-269.99 -4.5,-372.98 -103,-103.01 -269.99,-102.99 -372.97,0.01 l -778.59,778.61 m 779.54,-782.17 c 103.01,-103 98.5,-270.002 -4.49,-372.971 -103,-102.998 -270,-102.978 -372.99,0 M 617.393,1671.65 511.602,1777.44 c -457.3784,457.38 -521.19184,1262.74 -63.828,1720.1 457.378,457.39 1198.926,457.38 1656.306,0 l 32.13,-32.31"
       id="path2"
       style="display:inline;stroke:#ffffff;stroke-opacity:1" />
  </g>
  <metadata
     id="metadata2">
    <rdf:RDF>
      <cc:Work
         rdf:about="">
        <dc:title>Heart handshake</dc:title>
      </cc:Work>
    </rdf:RDF>
  </metadata>
</svg>
