<svg xmlns="http://www.w3.org/2000/svg" style="display: none;">
  <symbol id="heart-handshake" viewBox="0 0 4274 3976">
    <path d="M2238 3766c-103 103-270 98-373-5-103-103-103-270 0-373l262-262c103-103 270-98 373 5 103 103 103 270 0 373zm-377-377c-103 103-270 99-373-4-103-103-103-270 0-373l262-262c103-103 270-98 373 4 103 103 103 270 0 373zm-376-376c-103 103-270 98-373-5-103-103-103-270 0-373l262-262c103-103 270-98 373 5 103 103 103 270 0 373zm-376-377c-103 103-270 99-373-4-103-103-103-270 0-373l262-262c103-103 270-98 373 5 103 103 103 270 0 373zm1431-1720l-451 452c-220 223-564 223-776 10l765-765m-2 2c458-457 1263-521 1720-64 458 458 458 1199 0 1657M2547 921l1156 1156c103 103 98 270-5 373-103 103-270 103-373 0m-778-775l779 779c103 103 98 270-5 373-103 103-270 103-373 0l-778-779m779 783c103 103 99 270-4 373-103 103-270 103-373 0M617 2304l-105-105c-458-458-522-1263-64-1720 457-458 1199-458 1656 0l32 32"/>
  </symbol>

  <symbol id="medical-cross" viewBox="0 0 28.441 28.441">
    <path d="M28.441 14.22C28.441 22.107 22.107 28.441 14.22 28.441S0 22.107 0 14.22 6.334 0 14.22 0s14.221 6.334 14.221 14.22zm-5.167-3.297h-5.754V5.172h-6.66v5.75H5.11v6.66h5.75v5.688h6.66v-5.754h5.754z"/>
  </symbol>

  <symbol id="icon-info" viewBox="0 0 30 30">
    <path d="M15 0C23.284 0 30 6.716 30 15s-6.716 15-15 15S0 23.284 0 15 6.716 0 15 0zm0 5.723a1.993 1.993 0 100 3.986 1.993 1.993 0 000-3.986zm-1.812 5.48v1.512h1.45v7.71h-1.45v2.887h6.527v-2.887h-1.453v-9.222h-5.074zM15 1.398C7.49 1.398 1.398 7.49 1.398 15S7.49 28.602 15 28.602 28.602 22.51 28.602 15 22.51 1.398 15 1.398z"/>
  </symbol>
</svg>
