<svg xmlns="http://www.w3.org/2000/svg" style="display: none;">
  <symbol id="heart-handshake" viewBox="0 0 4274 3976">
    <path d="M2238 3766c-103 103-270 98-373-5-103-103-103-270 0-373l262-262c103-103 270-98 373 5 103 103 103 270 0 373zm-377-377c-103 103-270 99-373-4-103-103-103-270 0-373l262-262c103-103 270-98 373 4 103 103 103 270 0 373zm-376-376c-103 103-270 98-373-5-103-103-103-270 0-373l262-262c103-103 270-98 373 5 103 103 103 270 0 373zm-376-377c-103 103-270 99-373-4-103-103-103-270 0-373l262-262c103-103 270-98 373 5 103 103 103 270 0 373zm1431-1720l-451 452c-220 223-564 223-776 10l765-765m-2 2c458-457 1263-521 1720-64 458 458 458 1199 0 1657M2547 921l1156 1156c103 103 98 270-5 373-103 103-270 103-373 0m-778-775l779 779c103 103 98 270-5 373-103 103-270 103-373 0l-778-779m779 783c103 103 99 270-4 373-103 103-270 103-373 0M617 2304l-105-105c-458-458-522-1263-64-1720 457-458 1199-458 1656 0l32 32"/>
  </symbol>
</svg>
