<svg xmlns="http://www.w3.org/2000/svg" xmlns:xlink="http://www.w3.org/1999/xlink" width="40" zoomAndPan="magnify" viewBox="0 0 30 30.000001" height="40" preserveAspectRatio="xMidYMid meet" version="1.0"><defs><clipPath id="3f37c685b0"><path d="M 15 8 L 24.8125 8 L 24.8125 26.230469 L 15 26.230469 Z M 15 8 " clip-rule="nonzero"/></clipPath><clipPath id="2e40164bbe"><path d="M 18 3.003906 L 23 3.003906 L 23 8 L 18 8 Z M 18 3.003906 " clip-rule="nonzero"/></clipPath><clipPath id="4dd856026b"><path d="M 7.21875 6 L 15.929688 6 L 15.929688 26.285156 L 7.21875 26.285156 Z M 7.21875 6 " clip-rule="nonzero"/></clipPath></defs><g clip-path="url(#3f37c685b0)"><path fill="#382213" d="M 24.980469 14.898438 L 23.738281 10.261719 C 23.421875 9.085938 22.355469 8.265625 21.136719 8.265625 L 18.976562 8.265625 C 17.757812 8.265625 16.691406 9.082031 16.375 10.261719 L 15.132812 14.898438 C 15.039062 15.246094 15.246094 15.601562 15.59375 15.695312 C 15.941406 15.789062 16.296875 15.582031 16.390625 15.234375 L 17.523438 11 C 17.566406 10.84375 17.710938 10.730469 17.878906 10.730469 L 15.714844 18.804688 L 17.882812 18.804688 L 17.882812 25 C 17.882812 25.566406 18.34375 26.023438 18.90625 26.023438 C 19.472656 26.023438 19.929688 25.566406 19.929688 25 L 19.929688 18.804688 L 20.183594 18.804688 L 20.183594 25 C 20.183594 25.566406 20.640625 26.023438 21.207031 26.023438 C 21.769531 26.023438 22.226562 25.566406 22.226562 25 L 22.226562 18.804688 L 24.398438 18.804688 L 22.234375 10.730469 C 22.402344 10.730469 22.546875 10.84375 22.585938 11 L 23.722656 15.234375 C 23.816406 15.582031 24.171875 15.789062 24.519531 15.695312 C 24.867188 15.601562 25.074219 15.246094 24.980469 14.898438 Z M 24.980469 14.898438 " fill-opacity="1" fill-rule="nonzero"/></g><g clip-path="url(#2e40164bbe)"><path fill="#382213" d="M 22.070312 5.859375 C 22.070312 6.125 22.019531 6.382812 21.917969 6.628906 C 21.816406 6.875 21.671875 7.09375 21.480469 7.285156 C 21.292969 7.472656 21.074219 7.617188 20.828125 7.722656 C 20.582031 7.824219 20.324219 7.875 20.054688 7.875 C 19.789062 7.875 19.53125 7.824219 19.285156 7.722656 C 19.039062 7.617188 18.820312 7.472656 18.632812 7.285156 C 18.441406 7.09375 18.296875 6.875 18.195312 6.628906 C 18.09375 6.382812 18.039062 6.125 18.039062 5.859375 C 18.039062 5.589844 18.09375 5.335938 18.195312 5.085938 C 18.296875 4.839844 18.441406 4.621094 18.632812 4.433594 C 18.820312 4.246094 19.039062 4.097656 19.285156 3.996094 C 19.53125 3.894531 19.789062 3.84375 20.054688 3.84375 C 20.324219 3.84375 20.582031 3.894531 20.828125 3.996094 C 21.074219 4.097656 21.292969 4.246094 21.480469 4.433594 C 21.671875 4.621094 21.816406 4.839844 21.917969 5.085938 C 22.019531 5.335938 22.070312 5.589844 22.070312 5.859375 Z M 22.070312 5.859375 " fill-opacity="1" fill-rule="nonzero"/></g><g clip-path="url(#4dd856026b)"><path fill="#382213" d="M 12.667969 6.628906 L 9.910156 6.628906 C 8.425781 6.628906 7.21875 7.832031 7.21875 9.320312 L 7.21875 15.046875 C 7.21875 15.4375 7.539062 15.753906 7.929688 15.753906 C 8.320312 15.753906 8.640625 15.4375 8.640625 15.046875 L 8.640625 9.457031 C 8.640625 9.382812 8.703125 9.320312 8.777344 9.320312 C 8.855469 9.320312 8.917969 9.382812 8.917969 9.457031 L 8.917969 24.902344 C 8.917969 25.519531 9.417969 26.015625 10.035156 26.015625 C 10.648438 26.015625 11.148438 25.519531 11.148438 24.902344 L 11.148438 18.273438 C 11.148438 18.195312 11.210938 18.132812 11.289062 18.132812 C 11.367188 18.132812 11.425781 18.195312 11.425781 18.273438 L 11.425781 24.902344 C 11.425781 25.519531 11.925781 26.015625 12.542969 26.015625 C 13.160156 26.015625 13.660156 25.519531 13.660156 24.902344 L 13.660156 9.457031 C 13.660156 9.382812 13.722656 9.320312 13.800781 9.320312 C 13.875 9.320312 13.9375 9.382812 13.9375 9.457031 L 13.9375 15.046875 C 13.9375 15.4375 14.257812 15.753906 14.648438 15.753906 C 15.039062 15.753906 15.359375 15.4375 15.359375 15.046875 L 15.359375 9.320312 C 15.359375 7.832031 14.15625 6.628906 12.667969 6.628906 Z M 12.667969 6.628906 " fill-opacity="1" fill-rule="nonzero"/></g><path fill="#382213" d="M 12.847656 2.441406 C 13.050781 2.648438 13.210938 2.886719 13.324219 3.15625 C 13.433594 3.425781 13.492188 3.707031 13.492188 4 C 13.492188 4.289062 13.433594 4.570312 13.324219 4.839844 C 13.210938 5.109375 13.050781 5.347656 12.847656 5.554688 C 12.640625 5.761719 12.402344 5.921875 12.132812 6.03125 C 11.863281 6.144531 11.582031 6.199219 11.289062 6.199219 C 10.996094 6.199219 10.71875 6.144531 10.449219 6.03125 C 10.175781 5.921875 9.941406 5.761719 9.734375 5.554688 C 9.527344 5.347656 9.367188 5.109375 9.257812 4.839844 C 9.144531 4.570312 9.089844 4.289062 9.089844 4 C 9.089844 3.707031 9.144531 3.425781 9.257812 3.15625 C 9.367188 2.886719 9.527344 2.648438 9.734375 2.441406 C 9.941406 2.238281 10.175781 2.078125 10.445312 1.964844 C 10.71875 1.855469 10.996094 1.796875 11.289062 1.796875 C 11.582031 1.796875 11.863281 1.855469 12.132812 1.964844 C 12.402344 2.078125 12.640625 2.238281 12.847656 2.441406 Z M 12.847656 2.441406 " fill-opacity="1" fill-rule="nonzero"/></svg>