<svg xmlns="http://www.w3.org/2000/svg" xmlns:xlink="http://www.w3.org/1999/xlink" width="40" zoomAndPan="magnify" viewBox="0 0 30 30.000001" height="40" preserveAspectRatio="xMidYMid meet" version="1.0"><defs><clipPath id="29b0d59e44"><path d="M 9 6.894531 L 14 6.894531 L 14 11 L 9 11 Z M 9 6.894531 " clip-rule="nonzero"/></clipPath><clipPath id="b527a93d6a"><path d="M 16 6.894531 L 21 6.894531 L 21 11 L 16 11 Z M 16 6.894531 " clip-rule="nonzero"/></clipPath><clipPath id="95e1e74ccf"><path d="M 7.578125 10 L 22.09375 10 L 22.09375 22.136719 L 7.578125 22.136719 Z M 7.578125 10 " clip-rule="nonzero"/></clipPath></defs><g clip-path="url(#29b0d59e44)"><path fill="#382213" d="M 13.652344 8.945312 C 13.652344 9.210938 13.601562 9.464844 13.5 9.707031 C 13.398438 9.949219 13.257812 10.164062 13.070312 10.351562 C 12.882812 10.535156 12.667969 10.679688 12.425781 10.78125 C 12.183594 10.882812 11.929688 10.929688 11.667969 10.929688 C 11.402344 10.929688 11.152344 10.882812 10.90625 10.78125 C 10.664062 10.679688 10.449219 10.535156 10.265625 10.351562 C 10.078125 10.164062 9.933594 9.949219 9.832031 9.707031 C 9.734375 9.464844 9.683594 9.210938 9.683594 8.945312 C 9.683594 8.683594 9.734375 8.429688 9.832031 8.1875 C 9.933594 7.945312 10.078125 7.730469 10.265625 7.542969 C 10.449219 7.355469 10.664062 7.214844 10.90625 7.113281 C 11.152344 7.011719 11.402344 6.960938 11.667969 6.960938 C 11.929688 6.960938 12.183594 7.011719 12.425781 7.113281 C 12.667969 7.214844 12.882812 7.355469 13.070312 7.542969 C 13.257812 7.730469 13.398438 7.945312 13.5 8.1875 C 13.601562 8.429688 13.652344 8.683594 13.652344 8.945312 Z M 13.652344 8.945312 " fill-opacity="1" fill-rule="nonzero"/></g><g clip-path="url(#b527a93d6a)"><path fill="#382213" d="M 20.296875 8.945312 C 20.296875 9.210938 20.246094 9.464844 20.144531 9.707031 C 20.046875 9.949219 19.902344 10.164062 19.714844 10.351562 C 19.53125 10.535156 19.316406 10.679688 19.070312 10.78125 C 18.828125 10.882812 18.574219 10.929688 18.3125 10.929688 C 18.050781 10.929688 17.796875 10.882812 17.554688 10.78125 C 17.308594 10.679688 17.09375 10.535156 16.910156 10.351562 C 16.722656 10.164062 16.578125 9.949219 16.480469 9.707031 C 16.378906 9.464844 16.328125 9.210938 16.328125 8.945312 C 16.328125 8.683594 16.378906 8.429688 16.480469 8.1875 C 16.578125 7.945312 16.722656 7.730469 16.910156 7.542969 C 17.09375 7.355469 17.308594 7.214844 17.554688 7.113281 C 17.796875 7.011719 18.050781 6.960938 18.3125 6.960938 C 18.574219 6.960938 18.828125 7.011719 19.070312 7.113281 C 19.316406 7.214844 19.53125 7.355469 19.714844 7.542969 C 19.902344 7.730469 20.046875 7.945312 20.144531 8.1875 C 20.246094 8.429688 20.296875 8.683594 20.296875 8.945312 Z M 20.296875 8.945312 " fill-opacity="1" fill-rule="nonzero"/></g><g clip-path="url(#95e1e74ccf)"><path fill="#382213" d="M 20.296875 17.074219 L 20.296875 13.113281 L 22.140625 11.269531 C 22.410156 10.996094 22.410156 10.554688 22.140625 10.285156 C 21.871094 10.011719 21.425781 10.011719 21.15625 10.285156 L 19.164062 12.277344 L 17.460938 12.277344 L 15.59375 10.40625 C 15.566406 10.363281 15.535156 10.320312 15.496094 10.285156 C 15.355469 10.144531 15.171875 10.078125 14.988281 10.082031 C 14.808594 10.078125 14.621094 10.144531 14.484375 10.285156 C 14.445312 10.320312 14.414062 10.363281 14.386719 10.40625 L 12.675781 12.121094 C 12.578125 12.0625 12.464844 12.027344 12.347656 12.027344 L 10.988281 12.027344 C 10.867188 12.027344 10.757812 12.0625 10.660156 12.121094 L 8.824219 10.285156 C 8.550781 10.011719 8.109375 10.011719 7.839844 10.285156 C 7.566406 10.554688 7.566406 10.996094 7.839844 11.269531 L 10.074219 13.503906 L 8.96875 17.273438 C 8.847656 17.683594 9.15625 18.097656 9.585938 18.097656 L 9.851562 18.097656 L 9.394531 21.175781 C 9.339844 21.554688 9.601562 21.910156 9.980469 21.964844 C 10.359375 22.019531 10.714844 21.757812 10.773438 21.378906 L 11.257812 18.097656 L 12.074219 18.097656 L 12.5625 21.378906 C 12.617188 21.757812 12.972656 22.019531 13.351562 21.964844 C 13.730469 21.910156 13.996094 21.554688 13.9375 21.175781 L 13.480469 18.097656 L 13.746094 18.097656 C 14.175781 18.097656 14.484375 17.683594 14.363281 17.273438 L 13.257812 13.503906 L 14.988281 11.773438 L 16.328125 13.113281 L 16.328125 17.074219 C 16.328125 17.300781 16.421875 17.503906 16.570312 17.648438 L 16.039062 21.226562 C 15.984375 21.605469 16.246094 21.960938 16.625 22.019531 C 17.003906 22.074219 17.359375 21.8125 17.417969 21.433594 L 17.945312 17.878906 L 18.679688 17.878906 L 19.207031 21.433594 C 19.265625 21.8125 19.621094 22.074219 20 22.019531 C 20.378906 21.964844 20.640625 21.605469 20.585938 21.226562 L 20.054688 17.648438 C 20.203125 17.503906 20.296875 17.300781 20.296875 17.074219 Z M 20.296875 17.074219 " fill-opacity="1" fill-rule="nonzero"/></g></svg>