<svg xmlns="http://www.w3.org/2000/svg" xmlns:xlink="http://www.w3.org/1999/xlink" width="40" zoomAndPan="magnify" viewBox="0 0 30 30.000001" height="40" preserveAspectRatio="xMidYMid meet" version="1.0"><defs><clipPath id="48c81ea419"><path d="M 9 8.277344 L 23.566406 8.277344 L 23.566406 20.617188 L 9 20.617188 Z M 9 8.277344 " clip-rule="nonzero"/></clipPath><clipPath id="ed1e8d19c8"><path d="M 8.324219 9 L 21 9 L 21 20.617188 L 8.324219 20.617188 Z M 8.324219 9 " clip-rule="nonzero"/></clipPath></defs><g clip-path="url(#48c81ea419)"><path fill="#382213" d="M 14.335938 11.914062 L 9.425781 9.078125 L 9.425781 18.253906 L 14.335938 19.734375 Z M 14.863281 11.933594 L 14.863281 19.734375 L 19.808594 18.238281 L 19.808594 9.078125 Z M 23.652344 8.855469 C 23.652344 8.53125 23.394531 8.277344 23.074219 8.277344 C 22.75 8.277344 22.496094 8.53125 22.496094 8.855469 L 22.496094 9.484375 L 23.652344 9.484375 Z M 22.648438 18.085938 L 22.496094 18.085938 L 23.074219 20.105469 L 23.652344 18.085938 L 23.515625 18.085938 L 23.652344 18.085938 L 23.652344 9.925781 L 22.496094 9.925781 L 22.496094 18.085938 Z M 22.648438 18.085938 " fill-opacity="1" fill-rule="nonzero"/></g><g clip-path="url(#ed1e8d19c8)"><path fill="#382213" d="M 20.863281 9.484375 L 20.335938 9.058594 L 20.335938 18.492188 L 14.882812 20.261719 L 14.335938 20.261719 L 8.898438 18.746094 L 8.898438 9.058594 L 8.371094 9.484375 L 8.371094 19.105469 L 14.304688 20.753906 L 14.914062 20.753906 L 20.371094 19.019531 L 20.863281 18.867188 Z M 20.863281 9.484375 " fill-opacity="1" fill-rule="nonzero"/></g></svg>