<svg xmlns="http://www.w3.org/2000/svg" xmlns:xlink="http://www.w3.org/1999/xlink" width="40" zoomAndPan="magnify" viewBox="0 0 30 30.000001" height="40" preserveAspectRatio="xMidYMid meet" version="1.0"><defs><clipPath id="fe5bdf0e5b"><path d="M 17 8 L 24 8 L 24 24.027344 L 17 24.027344 Z M 17 8 " clip-rule="nonzero"/></clipPath><clipPath id="d1e8c73f3d"><path d="M 20 9 L 25.363281 9 L 25.363281 24.027344 L 20 24.027344 Z M 20 9 " clip-rule="nonzero"/></clipPath><clipPath id="d1437ef7a4"><path d="M 20 5.15625 L 25.363281 5.15625 L 25.363281 11 L 20 11 Z M 20 5.15625 " clip-rule="nonzero"/></clipPath><clipPath id="10eb7c52ec"><path d="M 6.582031 6 L 16.394531 6 L 16.394531 24.300781 L 6.582031 24.300781 Z M 6.582031 6 " clip-rule="nonzero"/></clipPath><clipPath id="3cda78e7d4"><path d="M 9 1.074219 L 14 1.074219 L 14 6 L 9 6 Z M 9 1.074219 " clip-rule="nonzero"/></clipPath><clipPath id="59faf1b3ae"><path d="M 18.105469 14.515625 L 22.207031 14.515625 L 22.207031 19.9375 L 18.105469 19.9375 Z M 18.105469 14.515625 " clip-rule="nonzero"/></clipPath></defs><g clip-path="url(#fe5bdf0e5b)"><path fill="#382213" d="M 20.445312 9.808594 C 20.640625 9.617188 20.898438 9.507812 21.175781 9.503906 C 21.171875 9.5 21.167969 9.496094 21.164062 9.484375 C 20.953125 9.234375 20.789062 8.957031 20.664062 8.664062 C 20.402344 8.671875 20.101562 8.777344 19.683594 9.328125 C 19.140625 10.011719 18.710938 10.773438 18.410156 11.578125 C 18.113281 12.386719 17.933594 13.242188 17.898438 14.105469 L 17.859375 15.019531 L 17.859375 23.371094 C 17.859375 23.765625 18.183594 24.078125 18.574219 24.078125 L 19.355469 24.078125 C 19.75 24.078125 20.074219 23.761719 20.074219 23.371094 L 20.074219 15.722656 L 20.945312 15.722656 L 20.945312 23.367188 C 20.945312 23.761719 21.265625 24.074219 21.660156 24.074219 L 22.441406 24.074219 C 22.835938 24.074219 23.15625 23.753906 23.15625 23.367188 L 23.15625 14.441406 L 23.261719 14.042969 L 20.457031 11.261719 C 20.042969 10.859375 20.042969 10.210938 20.445312 9.808594 Z M 20.445312 9.808594 " fill-opacity="1" fill-rule="nonzero"/></g><path fill="#382213" d="M 22.511719 10.394531 L 23.878906 11.75 L 24.277344 10.265625 C 24.300781 10.191406 24.3125 10.117188 24.316406 10.042969 C 23.925781 10.316406 23.488281 10.460938 23.039062 10.460938 C 22.859375 10.460938 22.679688 10.441406 22.511719 10.394531 Z M 22.511719 10.394531 " fill-opacity="1" fill-rule="nonzero"/><g clip-path="url(#d1e8c73f3d)"><path fill="#382213" d="M 25.417969 13.683594 L 23.789062 12.070312 L 21.710938 10.011719 C 21.710938 10.007812 21.703125 10.007812 21.699219 10 C 21.699219 10 21.699219 10 21.699219 9.996094 C 21.683594 9.988281 21.675781 9.972656 21.660156 9.960938 C 21.648438 9.953125 21.636719 9.941406 21.621094 9.933594 C 21.609375 9.925781 21.605469 9.921875 21.59375 9.917969 C 21.585938 9.914062 21.582031 9.90625 21.574219 9.902344 C 21.566406 9.898438 21.5625 9.890625 21.554688 9.886719 C 21.546875 9.882812 21.539062 9.878906 21.53125 9.871094 C 21.507812 9.859375 21.476562 9.847656 21.449219 9.835938 C 21.4375 9.828125 21.421875 9.828125 21.40625 9.824219 C 21.390625 9.816406 21.382812 9.8125 21.367188 9.8125 L 21.328125 9.804688 C 21.316406 9.796875 21.300781 9.796875 21.292969 9.792969 C 21.277344 9.792969 21.265625 9.789062 21.257812 9.789062 C 21.246094 9.789062 21.238281 9.78125 21.226562 9.78125 C 21.210938 9.78125 21.199219 9.777344 21.183594 9.777344 C 21.167969 9.777344 21.152344 9.78125 21.136719 9.78125 C 21.128906 9.78125 21.117188 9.78125 21.109375 9.789062 C 21.097656 9.789062 21.089844 9.792969 21.074219 9.792969 C 21.0625 9.796875 21.046875 9.796875 21.039062 9.804688 C 21.007812 9.808594 20.984375 9.8125 20.957031 9.824219 C 20.945312 9.828125 20.929688 9.832031 20.914062 9.835938 C 20.882812 9.847656 20.859375 9.859375 20.828125 9.871094 C 20.8125 9.882812 20.800781 9.890625 20.78125 9.898438 C 20.773438 9.902344 20.769531 9.90625 20.765625 9.90625 C 20.753906 9.917969 20.746094 9.921875 20.734375 9.925781 C 20.71875 9.9375 20.710938 9.945312 20.691406 9.957031 C 20.675781 9.972656 20.660156 9.988281 20.644531 9.996094 C 20.351562 10.285156 20.351562 10.753906 20.644531 11.042969 L 23.332031 13.703125 L 24.351562 14.714844 C 24.363281 14.722656 24.371094 14.734375 24.382812 14.742188 C 24.390625 14.753906 24.398438 14.757812 24.40625 14.765625 C 24.445312 14.796875 24.492188 14.828125 24.535156 14.847656 C 24.546875 14.855469 24.550781 14.859375 24.5625 14.859375 C 24.570312 14.863281 24.582031 14.867188 24.589844 14.875 C 24.601562 14.878906 24.609375 14.882812 24.621094 14.882812 L 24.621094 23.695312 C 24.621094 23.894531 24.785156 24.058594 24.988281 24.058594 C 25.1875 24.058594 25.355469 23.894531 25.355469 23.695312 L 25.355469 14.773438 C 25.355469 14.769531 25.355469 14.769531 25.355469 14.769531 C 25.371094 14.753906 25.386719 14.738281 25.402344 14.730469 C 25.710938 14.441406 25.710938 13.972656 25.417969 13.683594 Z M 25.417969 13.683594 " fill-opacity="1" fill-rule="nonzero"/></g><g clip-path="url(#d1437ef7a4)"><path fill="#382213" d="M 21.757812 9.679688 C 21.800781 9.714844 21.84375 9.742188 21.882812 9.773438 C 22.226562 10.015625 22.621094 10.171875 23.039062 10.171875 C 23.492188 10.171875 23.914062 9.996094 24.273438 9.714844 C 24.933594 9.195312 25.371094 8.308594 25.371094 7.480469 C 25.371094 6.203125 24.328125 5.171875 23.039062 5.171875 C 21.75 5.171875 20.703125 6.203125 20.703125 7.480469 C 20.703125 7.882812 20.808594 8.300781 20.992188 8.683594 C 21.175781 9.066406 21.441406 9.414062 21.757812 9.679688 Z M 21.757812 9.679688 " fill-opacity="1" fill-rule="nonzero"/></g><g clip-path="url(#10eb7c52ec)"><path fill="#382213" d="M 16.558594 12.96875 L 15.316406 8.332031 C 15.003906 7.152344 13.933594 6.335938 12.714844 6.335938 L 10.558594 6.335938 C 9.339844 6.335938 8.273438 7.152344 7.957031 8.332031 L 6.714844 12.96875 C 6.621094 13.316406 6.828125 13.671875 7.175781 13.765625 C 7.519531 13.859375 7.878906 13.652344 7.972656 13.304688 L 9.105469 9.070312 C 9.148438 8.910156 9.292969 8.800781 9.457031 8.800781 L 7.296875 16.871094 L 9.464844 16.871094 L 9.464844 23.070312 C 9.464844 23.632812 9.921875 24.09375 10.488281 24.09375 C 11.050781 24.09375 11.507812 23.632812 11.507812 23.070312 L 11.507812 16.871094 L 11.765625 16.871094 L 11.765625 23.070312 C 11.765625 23.632812 12.222656 24.09375 12.785156 24.09375 C 13.351562 24.09375 13.808594 23.632812 13.808594 23.070312 L 13.808594 16.871094 L 15.980469 16.871094 L 13.816406 8.800781 C 13.980469 8.800781 14.125 8.910156 14.167969 9.070312 L 15.304688 13.304688 C 15.394531 13.652344 15.753906 13.859375 16.101562 13.765625 C 16.445312 13.671875 16.652344 13.316406 16.558594 12.96875 Z M 16.558594 12.96875 " fill-opacity="1" fill-rule="nonzero"/></g><g clip-path="url(#3cda78e7d4)"><path fill="#382213" d="M 13.652344 3.925781 C 13.652344 4.195312 13.601562 4.453125 13.5 4.699219 C 13.398438 4.945312 13.25 5.164062 13.0625 5.351562 C 12.875 5.542969 12.65625 5.6875 12.410156 5.789062 C 12.160156 5.890625 11.90625 5.941406 11.636719 5.941406 C 11.371094 5.941406 11.113281 5.890625 10.867188 5.789062 C 10.617188 5.6875 10.402344 5.542969 10.210938 5.351562 C 10.023438 5.164062 9.878906 4.945312 9.773438 4.699219 C 9.671875 4.453125 9.621094 4.195312 9.621094 3.925781 C 9.621094 3.660156 9.671875 3.402344 9.773438 3.15625 C 9.878906 2.910156 10.023438 2.691406 10.210938 2.503906 C 10.402344 2.3125 10.617188 2.167969 10.867188 2.066406 C 11.113281 1.964844 11.371094 1.910156 11.636719 1.910156 C 11.90625 1.910156 12.160156 1.964844 12.410156 2.066406 C 12.65625 2.167969 12.875 2.3125 13.0625 2.503906 C 13.25 2.691406 13.398438 2.910156 13.5 3.15625 C 13.601562 3.402344 13.652344 3.660156 13.652344 3.925781 Z M 13.652344 3.925781 " fill-opacity="1" fill-rule="nonzero"/></g><g clip-path="url(#59faf1b3ae)"><path fill="#382213" d="M 18.105469 14.515625 L 22.207031 14.515625 L 22.207031 19.945312 L 18.105469 19.945312 Z M 18.105469 14.515625 " fill-opacity="1" fill-rule="nonzero"/></g></svg>