<svg xmlns="http://www.w3.org/2000/svg" xmlns:xlink="http://www.w3.org/1999/xlink" width="40" zoomAndPan="magnify" viewBox="0 0 30 30.000001" height="40" preserveAspectRatio="xMidYMid meet" version="1.0"><defs><clipPath id="d520325b8e"><path d="M 3 0 L 29.515625 0 L 29.515625 28 L 3 28 Z M 3 0 " clip-rule="nonzero"/></clipPath><clipPath id="5421a661d5"><path d="M 0.484375 1 L 29.515625 1 L 29.515625 29.03125 L 0.484375 29.03125 Z M 0.484375 1 " clip-rule="nonzero"/></clipPath></defs><g clip-path="url(#d520325b8e)"><path fill="#b0762b" d="M 14.484375 8.464844 L 3.050781 1.859375 L 3.050781 23.21875 L 14.484375 26.660156 Z M 15.710938 8.503906 L 15.710938 26.660156 L 27.21875 23.179688 L 27.21875 1.859375 Z M 36.160156 1.34375 C 36.160156 0.59375 35.566406 0 34.8125 0 C 34.0625 0 33.46875 0.59375 33.46875 1.34375 L 33.46875 2.808594 L 36.160156 2.808594 Z M 33.824219 22.824219 L 33.46875 22.824219 L 34.8125 27.527344 L 36.160156 22.824219 L 35.84375 22.824219 L 36.160156 22.824219 L 36.160156 3.835938 L 33.46875 3.835938 L 33.46875 22.824219 Z M 33.824219 22.824219 " fill-opacity="1" fill-rule="nonzero"/></g><g clip-path="url(#5421a661d5)"><path fill="#b0762b" d="M 29.671875 2.808594 L 28.445312 1.820312 L 28.445312 23.773438 L 15.75 27.886719 L 14.484375 27.886719 L 1.828125 24.363281 L 1.828125 1.820312 L 0.601562 2.808594 L 0.601562 25.195312 L 14.40625 29.03125 L 15.828125 29.03125 L 28.523438 24.996094 L 29.671875 24.640625 Z M 29.671875 2.808594 " fill-opacity="1" fill-rule="nonzero"/></g></svg>