<svg xmlns="http://www.w3.org/2000/svg" xmlns:xlink="http://www.w3.org/1999/xlink" width="40" zoomAndPan="magnify" viewBox="0 0 30 30.000001" height="40" preserveAspectRatio="xMidYMid meet" version="1.0"><defs><clipPath id="e4ae0f7cd4"><path d="M 4 21.347656 L 27 21.347656 L 27 27.878906 L 4 27.878906 Z M 4 21.347656 " clip-rule="nonzero"/></clipPath><clipPath id="2d77964ed9"><path d="M 1.050781 2.214844 L 29.515625 2.214844 L 29.515625 15.726562 L 1.050781 15.726562 Z M 1.050781 2.214844 " clip-rule="nonzero"/></clipPath><clipPath id="cf45fb10f3"><path d="M 16.386719 2.652344 L 29.40625 14.738281 C 29.578125 14.898438 29.636719 15.148438 29.550781 15.367188 C 29.464844 15.582031 29.253906 15.726562 29.019531 15.726562 L 1.625 15.726562 C 1.390625 15.726562 1.179688 15.582031 1.09375 15.367188 C 1.007812 15.148438 1.0625 14.898438 1.234375 14.738281 L 14.257812 2.652344 C 14.855469 2.09375 15.785156 2.09375 16.386719 2.652344 Z M 16.386719 2.652344 " clip-rule="nonzero"/></clipPath><clipPath id="85bdc002bb"><path d="M 4.617188 14.507812 L 26.398438 14.507812 L 26.398438 22.472656 L 4.617188 22.472656 Z M 4.617188 14.507812 " clip-rule="nonzero"/></clipPath></defs><g clip-path="url(#e4ae0f7cd4)"><path fill="#b0762b" d="M 25.609375 27.492188 C 25.984375 27.492188 26.285156 27.191406 26.285156 26.816406 L 26.285156 21.230469 L 4.566406 21.230469 L 4.566406 26.816406 C 4.566406 27.191406 4.867188 27.492188 5.238281 27.492188 L 13.640625 27.492188 L 13.640625 24.625 C 13.640625 23.640625 14.4375 22.839844 15.425781 22.839844 C 16.410156 22.839844 17.210938 23.640625 17.210938 24.625 L 17.210938 27.492188 Z M 25.609375 27.492188 " fill-opacity="1" fill-rule="nonzero"/></g><g clip-path="url(#2d77964ed9)"><g clip-path="url(#cf45fb10f3)"><path fill="#b0762b" d="M 0.171875 1.664062 L 30.496094 1.664062 L 30.496094 15.726562 L 0.171875 15.726562 Z M 0.171875 1.664062 " fill-opacity="1" fill-rule="nonzero"/></g></g><g clip-path="url(#85bdc002bb)"><path fill="#b0762b" d="M 4.617188 14.507812 L 26.390625 14.507812 L 26.390625 22.472656 L 4.617188 22.472656 Z M 4.617188 14.507812 " fill-opacity="1" fill-rule="nonzero"/></g></svg>