<svg xmlns="http://www.w3.org/2000/svg" xmlns:xlink="http://www.w3.org/1999/xlink" width="40" zoomAndPan="magnify" viewBox="0 0 30 30.000001" height="40" preserveAspectRatio="xMidYMid meet" version="1.0"><defs><clipPath id="c18b80cb13"><path d="M 0.484375 0 L 29.515625 0 L 29.515625 29.03125 L 0.484375 29.03125 Z M 0.484375 0 " clip-rule="nonzero"/></clipPath></defs><g clip-path="url(#c18b80cb13)"><path fill="#b0762b" d="M 14.996094 0.0078125 C 23.015625 0.0078125 29.515625 6.507812 29.515625 14.527344 C 29.515625 22.542969 23.015625 29.042969 14.996094 29.042969 C 6.976562 29.042969 0.476562 22.542969 0.476562 14.527344 C 0.476562 6.507812 6.976562 0.0078125 14.996094 0.0078125 Z M 14.996094 5.730469 C 16.097656 5.730469 16.988281 6.621094 16.988281 7.722656 C 16.988281 8.824219 16.097656 9.71875 14.996094 9.71875 C 13.894531 9.71875 13 8.824219 13 7.722656 C 13 6.621094 13.894531 5.730469 14.996094 5.730469 Z M 13.183594 11.210938 L 16.808594 11.210938 L 16.808594 20.433594 L 18.261719 20.433594 L 18.261719 23.320312 L 11.734375 23.320312 L 11.734375 20.433594 L 13.183594 20.433594 L 13.183594 12.722656 L 11.734375 12.722656 L 11.734375 11.210938 Z M 14.996094 1.40625 C 7.75 1.40625 1.878906 7.277344 1.878906 14.523438 C 1.878906 21.769531 7.75 27.640625 14.996094 27.640625 C 22.242188 27.640625 28.113281 21.769531 28.113281 14.523438 C 28.113281 7.277344 22.242188 1.40625 14.996094 1.40625 Z M 14.996094 1.40625 " fill-opacity="1" fill-rule="nonzero"/></g></svg>