<svg xmlns="http://www.w3.org/2000/svg" xmlns:xlink="http://www.w3.org/1999/xlink" width="40" zoomAndPan="magnify" viewBox="0 0 30 30.000001" height="40" preserveAspectRatio="xMidYMid meet" version="1.0"><defs><clipPath id="e59071a1cb"><path d="M 0.773438 0.582031 L 29.082031 0.582031 L 29.082031 28.886719 L 0.773438 28.886719 Z M 0.773438 0.582031 " clip-rule="nonzero"/></clipPath></defs><g clip-path="url(#e59071a1cb)"><path fill="#b0762b" d="M 29.214844 14.800781 C 29.214844 22.6875 22.882812 29.023438 14.996094 29.023438 C 7.109375 29.023438 0.773438 22.6875 0.773438 14.800781 C 0.773438 6.914062 7.109375 0.582031 14.996094 0.582031 C 22.882812 0.582031 29.214844 6.914062 29.214844 14.800781 Z M 24.046875 11.503906 L 18.292969 11.503906 L 18.292969 5.753906 L 11.632812 5.753906 L 11.632812 11.503906 L 5.882812 11.503906 L 5.882812 18.164062 L 11.632812 18.164062 L 11.632812 23.851562 L 18.292969 23.851562 L 18.292969 18.097656 L 24.046875 18.097656 Z M 24.046875 11.503906 " fill-opacity="1" fill-rule="nonzero"/></g></svg>