<svg xmlns="http://www.w3.org/2000/svg" xmlns:xlink="http://www.w3.org/1999/xlink" width="40" zoomAndPan="magnify" viewBox="0 0 30 30.000001" height="40" preserveAspectRatio="xMidYMid meet" version="1.0"><defs><clipPath id="2058fc42b9"><path d="M 3.894531 23 L 26.394531 23 L 26.394531 29.03125 L 3.894531 29.03125 Z M 3.894531 23 " clip-rule="nonzero"/></clipPath></defs><path fill="#b0762b" d="M 14.996094 13.375 C 12.214844 13.375 9.960938 11.121094 9.960938 8.339844 C 9.960938 5.558594 12.214844 3.300781 14.996094 3.300781 C 17.78125 3.300781 20.035156 5.558594 20.035156 8.339844 C 20.035156 11.121094 17.78125 13.375 14.996094 13.375 Z M 14.996094 -0.00390625 C 10.035156 -0.00390625 6.015625 4.019531 6.015625 8.980469 C 6.015625 13.941406 14.996094 26.128906 14.996094 26.128906 C 14.996094 26.128906 23.980469 13.941406 23.980469 8.980469 C 23.980469 4.019531 19.957031 -0.00390625 14.996094 -0.00390625 " fill-opacity="1" fill-rule="nonzero"/><g clip-path="url(#2058fc42b9)"><path fill="#b0762b" d="M 22.617188 23.925781 C 21.378906 23.640625 19.890625 23.433594 18.269531 23.3125 C 18.058594 23.628906 17.851562 23.929688 17.660156 24.214844 C 19.441406 24.320312 21.074219 24.535156 22.40625 24.839844 C 24.664062 25.359375 25.15625 25.933594 25.15625 26.113281 C 25.15625 26.289062 24.664062 26.863281 22.40625 27.382812 C 20.433594 27.835938 17.800781 28.085938 14.996094 28.085938 C 12.191406 28.085938 9.5625 27.835938 7.585938 27.382812 C 5.332031 26.863281 4.839844 26.289062 4.839844 26.113281 C 4.839844 25.933594 5.332031 25.359375 7.585938 24.839844 C 8.929688 24.53125 10.582031 24.316406 12.378906 24.210938 C 12.1875 23.929688 11.984375 23.625 11.769531 23.308594 C 10.132812 23.429688 8.628906 23.636719 7.375 23.925781 C 5.070312 24.457031 3.898438 25.191406 3.898438 26.113281 C 3.898438 27.03125 5.070312 27.769531 7.375 28.300781 C 9.417969 28.769531 12.125 29.027344 14.996094 29.027344 C 17.871094 29.027344 20.578125 28.769531 22.617188 28.300781 C 24.925781 27.769531 26.097656 27.03125 26.097656 26.113281 C 26.097656 25.191406 24.925781 24.457031 22.617188 23.925781 " fill-opacity="1" fill-rule="nonzero"/></g></svg>