<?xml version="1.0" encoding="UTF-8"?>
<svg id="Livello_2" xmlns="http://www.w3.org/2000/svg" viewBox="0 0 203.79 93.61">
  <defs>
    <style>
      .cls-1 {
        fill: #fff;
      }
    </style>
  </defs>
  <g id="Livello_1-2" data-name="Livello_1">
    <g>
      <path class="cls-1" d="M146.76,45.39c.73-1.54-.65-3.66-1.14-4.39-.57-.73-1.46-.57-1.63.08-.16.57,0,.57-.57,1.38-1.55,2.28-1.79,2.77-.57,4.31,1.22,1.55,2.68.9,3.9-1.38Z"/>
      <path class="cls-1" d="M201.75,60.76c-.89.73-.41,1.3-1.3,2.12-1.14,1.06-3.9,3.09-7.65,4.88-3.82,1.79-7.81,2.85-9.19,1.95-1.79-1.14.16-3.5,4.31-9.52,2.52-3.66,6.26-8.7,2.03-9.92-3.33-.98-9.52,3.5-13.18,6.75-3.91,3.5-5.86,5.12-7,6.26-.24.24-.41,0-.16-.41,1.63-2.77,7.08-11.31,2.77-12.61-3.34-.98-8.54,3.25-13.26,7-3.82,3.09-6.34,5.29-7.48,6.18-.16.16-.33,0-.16-.24.49-.73,4.96-8.05,5.53-9.03.24-.41.65-1.38.24-2.2-1.06-2.11-2.03-2.85-3.42-1.06-1.38,1.79-3.01,3.82-2.77,5.69.24,1.87-.08,2.44-.81,3.66-.33.55-1.35,2.18-2.38,3.87-1.44,1.06-3.52,2.39-6.08,3.61-3.82,1.79-7.65,3.01-8.95,2.03-1.95-1.46,2.77-8.13,3.82-9.76.98-1.46,3.34-4.8,3.74-5.61.24-.41.33-1.38-.08-2.2-1.38-3.01-2.03-2.52-3.01-1.3-1.63,2.03-3.01,3.33-2.52,5.12.33,1.14-.24,1.87-1.06,3.09-1.14,1.84-2.03,3.4-2.68,4.75-1.44,1.1-3.66,2.55-6.43,3.87-3.82,1.79-7.81,2.85-9.19,1.95-2.28-1.46.89-7.24,3.58-11.96,2.12-3.74,9.52-15.46,16.68-27.25,1.87-3.09,4.72-7.48,5.29-8.46.24-.41.65-1.38.24-2.2-1.06-2.12-2.03-2.85-3.42-1.06-1.38,1.79-3.01,3.82-2.77,5.69s-.24,2.6-1.22,4.39c-.73,1.3-14.64,23.75-17.16,27.82-1.3,2.09-2.54,4.49-3.34,6.74-1.38,1.11-3.83,2.73-6.99,4.24-3.82,1.79-7.81,2.93-9.19,2.03-1.38-.81,1.71-7.81,3.25-7.89,1.14-.08,1.95-2.36,2.28-3.42.49-1.55-.16-3.17-1.06-4.39-.89-1.22-1.87.57-1.87.57,0,0-.73,2.03-4.39,5.94-4.15,4.47-13.5,11.23-16.19,9.03-2.12-1.71,2.12-8.38,8.22-13.1,8.7-6.75,14.8-5.94,16.43-1.95.49,1.14.89,1.95,1.71,1.63.81-.33.98-1.38.65-1.95-2.77-5.69-12.85-5.69-21.64.57-5.78,4.07-11.39,12.77-7,15.86,4.39,3.09,14.48-5.21,18.55-9.35.33-.33.57-.08.41.24-2.85,5.61-3.25,7.89-.81,9.27,1.79.98,6.75-.24,10.82-2.2,3.05-1.47,5.04-2.72,6.37-3.7-.72,2.66-.61,4.92,1.11,5.9,1.79.98,6.83-.16,10.9-2.12,2.49-1.2,4.23-2.3,5.5-3.21-1.09,2.83-.75,4.43,1,5.41,1.79.98,6.59-.24,10.66-2.2,2-.96,3.51-1.84,4.69-2.62-.77,1.31-1.38,2.39-1.44,2.7-.16.89,1.38,3.33,2.36,1.71,2.52-4.23,8.13-9.27,11.96-12.36,5.04-4.07,8.38-5.45,9.35-4.64.73.65.57,2.28-1.14,6.1-1.55,3.42-3.9,7.65-4.56,9.19-.33.81,1.14,3.66,2.28,1.71,2.36-3.9,7.56-8.87,11.79-12.61,4.23-3.74,7.89-5.45,9.19-4.39.73.65.57,2.03-1.14,4.8-4.15,6.83-6.67,10.58-3.25,12.53,1.79.98,6.83-.16,10.9-2.12,4.23-2.03,6.34-3.74,7.57-4.72,2.03-1.63,3.25-2.85,3.17-3.66-.08-.81-.73-.57-2.03.49Z"/>
    </g>
    <g>
      <path class="cls-1" d="M87.85,17.66c-1.28-2.7-2.95-5.13-4.92-7.26l-.13.07h0s4.43-2.32,4.43-2.32l-5.71-3.37-2.56,2.03c-2.58-1.95-5.47-3.51-8.56-4.62C29.27-12.5,6.43,50.9,1.16,67.74c-1.32,4.22-1.57,8.73-.46,13.01,2.05,7.92,8.91,17.23,30.89,10.61,25.19-7.59,38.03-19.53,53.43-44.03,7.7-12.25,6.23-22.49,2.83-29.68ZM72.17,10.9c-6.51.24-19.44,6.02-19.85,13.02-.33,5.21,10,8.46,12.77,17.98,3.01.33,5.53.81,7.4,1.22,2.52.57,4.64,1.3,4.8,2.12.24.81-.57.89-2.2.41-1.14-.33-.89-.98-2.03-1.3-1.79-.49-4.47-.98-7.73-1.3,3.17,13.75-6.18,26.36-16.02,34.33-13.99,11.23-36.6,15.13-41.73,4.88-5.78-11.55,4.72-26.68,23.1-34.9,11.39-5.04,21.72-6.1,29.69-5.86-3.82-8.22-14.23-11.79-13.01-17.41,1.95-8.79,16.51-13.99,24.57-14.56,9.92-.73,7.65,8.22,4.72,11.96-1.87,2.44-3.42,5.04-6.59,6.59-3.17,1.55-3.99.98-5.29-.16-1.55-1.38,4.55-5.86,6.91-5.61,2.36.24,3.17-1.46,3.17-1.46,2.93-3.5,5.69-10.25-2.68-9.92Z"/>
      <path class="cls-1" d="M31.34,48.23c-17,7.56-26.93,22.37-22.29,32.54,3.82,8.38,26.19,3.17,37.83-6.51,8.95-7.4,18.38-20.17,13.99-31.48-8.3-.24-19.03.81-29.53,5.45Z"/>
    </g>
  </g>
</svg>