<?xml version="1.0" encoding="UTF-8" standalone="no"?>
<svg
   id="Livello_2"
   viewBox="0 0 260.60001 269.22462"
   version="1.1"
   sodipodi:docname="logo_piccolo_ingrandito.svg"
   inkscape:version="1.3.2 (091e20e, 2023-11-25)"
   width="260.60001"
   height="269.22461"
   inkscape:export-filename="../../../../Downloads/logo_extended_green_1.png"
   inkscape:export-xdpi="96"
   inkscape:export-ydpi="96"
   xmlns:inkscape="http://www.inkscape.org/namespaces/inkscape"
   xmlns:sodipodi="http://sodipodi.sourceforge.net/DTD/sodipodi-0.dtd"
   xmlns="http://www.w3.org/2000/svg"
   xmlns:svg="http://www.w3.org/2000/svg">
  <sodipodi:namedview
     id="namedview32"
     pagecolor="/#ffffff"
     bordercolor="/#000000"
     borderopacity="0.25"
     inkscape:showpageshadow="2"
     inkscape:pageopacity="0.0"
     inkscape:pagecheckerboard="0"
     inkscape:deskcolor="/#d1d1d1"
     inkscape:zoom="4.3673662"
     inkscape:cx="114.14202"
     inkscape:cy="144.82413"
     inkscape:window-width="3008"
     inkscape:window-height="1560"
     inkscape:window-x="1512"
     inkscape:window-y="25"
     inkscape:window-maximized="1"
     inkscape:current-layer="Livello_2"
     showguides="true"
     inkscape:export-bgcolor="/#ffffffff" />
  <defs
     id="defs1">
    <rect
       x="204.929"
       y="30.224165"
       width="2.2897096"
       height="12.593402"
       id="rect5" />
    <style
       id="style1">
      .cls-1 {
        fill: #5a8f30;
      }

      .cls-2 {
        fill: #ffffff;
      }
    </style>
  </defs>
  <g
     id="Livello_1-2"
     data-name="Livello_1"
     transform="matrix(1.9930658,0,0,1.9930658,40.477826,38.085097)"
     style="display:inline">
    <g
       id="g32"
       inkscape:label="g32">
      <path
         class="cls-2"
         d="M 87.85,17.66 C 86.57,14.96 84.9,12.53 82.93,10.4 L 82.8,10.47 78.27,7.36 78.96,6.81 C 76.38,4.86 73.49,3.3 70.4,2.19 29.27,-12.5 6.43,50.9 1.16,67.74 -0.16,71.96 -0.41,76.47 0.7,80.75 2.75,88.67 9.61,97.98 31.59,91.36 56.78,83.77 69.62,71.83 85.02,47.33 92.72,35.08 91.25,24.84 87.85,17.65 Z"
         id="path30" />
      <path
         class="cls-1"
         d="m 31.34,48.23 c -17,7.56 -26.93,22.37 -22.29,32.54 3.82,8.38 26.19,3.17 37.83,-6.51 8.95,-7.4 18.38,-20.17 13.99,-31.48 -8.3,-0.24 -19.03,0.81 -29.53,5.45 z"
         id="path31"
         style="fill:#637b20;fill-opacity:1" />
      <path
         class="cls-1"
         d="M 87.85,17.66 C 86.57,14.97 84.9,12.54 82.93,10.4 l 4.3,-2.25 -5.71,-3.37 -3.25,2.58 v 0 c 0,0 0.69,-0.55 0.69,-0.55 C 76.38,4.86 73.49,3.3 70.4,2.19 29.27,-12.5 6.43,50.9 1.16,67.74 -0.16,71.96 -0.41,76.47 0.7,80.75 2.75,88.67 9.61,97.98 31.59,91.36 56.78,83.77 69.62,71.83 85.02,47.33 92.72,35.08 91.25,24.84 87.85,17.65 Z M 72.17,10.9 c -6.51,0.24 -19.44,6.02 -19.85,13.02 -0.33,5.21 10,8.46 12.77,17.98 3.01,0.33 5.53,0.81 7.4,1.22 2.52,0.57 4.64,1.3 4.8,2.12 0.24,0.81 -0.57,0.89 -2.2,0.41 -1.14,-0.33 -0.89,-0.98 -2.03,-1.3 -1.79,-0.49 -4.47,-0.98 -7.73,-1.3 C 68.5,56.8 59.15,69.41 49.31,77.38 35.32,88.61 12.71,92.51 7.58,82.26 1.8,70.71 12.3,55.58 30.68,47.36 42.07,42.32 52.4,41.26 60.37,41.5 56.55,33.28 46.14,29.71 47.36,24.09 49.31,15.3 63.87,10.1 71.93,9.53 c 9.92,-0.73 7.65,8.22 4.72,11.96 -1.87,2.44 -3.42,5.04 -6.59,6.59 -3.17,1.55 -3.99,0.98 -5.29,-0.16 -1.55,-1.38 4.55,-5.86 6.91,-5.61 2.36,0.24 3.17,-1.46 3.17,-1.46 2.93,-3.5 5.69,-10.25 -2.68,-9.92 z"
         id="path32"
         style="fill:#637b20;fill-opacity:1;stroke:none" />
    </g>
  </g>
</svg>
