<?xml version="1.0" encoding="UTF-8" standalone="no"?>
<svg
   id="Livello_2"
   viewBox="0 0 230.45846 93.573913"
   version="1.1"
   sodipodi:docname="logo_extended_green_1_all_green.svg"
   inkscape:version="1.3.2 (091e20e, 2023-11-25)"
   width="530.05444"
   height="215.22"
   inkscape:export-filename="logo_extended_green_1_all.jpg"
   inkscape:export-xdpi="96"
   inkscape:export-ydpi="96"
   xmlns:inkscape="http://www.inkscape.org/namespaces/inkscape"
   xmlns:sodipodi="http://sodipodi.sourceforge.net/DTD/sodipodi-0.dtd"
   xmlns="http://www.w3.org/2000/svg"
   xmlns:svg="http://www.w3.org/2000/svg">
  <sodipodi:namedview
     id="namedview32"
     pagecolor="/#ffffff"
     bordercolor="/#000000"
     borderopacity="0.25"
     inkscape:showpageshadow="2"
     inkscape:pageopacity="0.0"
     inkscape:pagecheckerboard="0"
     inkscape:deskcolor="/#d1d1d1"
     inkscape:zoom="1.6874318"
     inkscape:cx="267.27006"
     inkscape:cy="128.00517"
     inkscape:window-width="1512"
     inkscape:window-height="813"
     inkscape:window-x="0"
     inkscape:window-y="38"
     inkscape:window-maximized="0"
     inkscape:current-layer="Livello_1-2"
     showguides="false" />
  <defs
     id="defs1">
    <rect
       x="204.929"
       y="30.224165"
       width="2.2897096"
       height="12.593402"
       id="rect5" />
    <style
       id="style1">
      .cls-1 {
        fill: #5a8f30;
      }

      .cls-2 {
        fill: #ffffff;
      }
    </style>
  </defs>
  <g
     id="Livello_1-2"
     data-name="Livello_1"
     transform="translate(0.17835555,0.07580893)"
     style="display:inline">
    <g
       id="g2">
      <path
         class="cls-1"
         d="m 146.76,45.39 c 0.73,-1.54 -0.65,-3.66 -1.14,-4.39 -0.57,-0.73 -1.46,-0.57 -1.63,0.08 -0.16,0.57 0,0.57 -0.57,1.38 -1.55,2.28 -1.79,2.77 -0.57,4.31 1.22,1.55 2.68,0.9 3.9,-1.38 z"
         id="path1"
         style="fill:#637b20;fill-opacity:1" />
      <path
         class="cls-1"
         d="m 201.75,60.76 c -0.89,0.73 -0.41,1.3 -1.3,2.12 -1.14,1.06 -3.9,3.09 -7.65,4.88 -3.82,1.79 -7.81,2.85 -9.19,1.95 -1.79,-1.14 0.16,-3.5 4.31,-9.52 2.52,-3.66 6.26,-8.7 2.03,-9.92 -3.33,-0.98 -9.52,3.5 -13.18,6.75 -3.91,3.5 -5.86,5.12 -7,6.26 -0.24,0.24 -0.41,0 -0.16,-0.41 1.63,-2.77 7.08,-11.31 2.77,-12.61 -3.34,-0.98 -8.54,3.25 -13.26,7 -3.82,3.09 -6.34,5.29 -7.48,6.18 -0.16,0.16 -0.33,0 -0.16,-0.24 0.49,-0.73 4.96,-8.05 5.53,-9.03 0.24,-0.41 0.65,-1.38 0.24,-2.2 -1.06,-2.11 -2.03,-2.85 -3.42,-1.06 -1.38,1.79 -3.01,3.82 -2.77,5.69 0.24,1.87 -0.08,2.44 -0.81,3.66 -0.33,0.55 -1.35,2.18 -2.38,3.87 -1.44,1.06 -3.52,2.39 -6.08,3.61 -3.82,1.79 -7.65,3.01 -8.95,2.03 -1.95,-1.46 2.77,-8.13 3.82,-9.76 0.98,-1.46 3.34,-4.8 3.74,-5.61 0.24,-0.41 0.33,-1.38 -0.08,-2.2 -1.38,-3.01 -2.03,-2.52 -3.01,-1.3 -1.63,2.03 -3.01,3.33 -2.52,5.12 0.33,1.14 -0.24,1.87 -1.06,3.09 -1.14,1.84 -2.03,3.4 -2.68,4.75 -1.44,1.1 -3.66,2.55 -6.43,3.87 -3.82,1.79 -7.81,2.85 -9.19,1.95 -2.28,-1.46 0.89,-7.24 3.58,-11.96 2.12,-3.74 9.52,-15.46 16.68,-27.25 1.87,-3.09 4.72,-7.48 5.29,-8.46 0.24,-0.41 0.65,-1.38 0.24,-2.2 -1.06,-2.12 -2.03,-2.85 -3.42,-1.06 -1.38,1.79 -3.01,3.82 -2.77,5.69 0.24,1.87 -0.24,2.6 -1.22,4.39 -0.73,1.3 -14.64,23.75 -17.16,27.82 -1.3,2.09 -2.54,4.49 -3.34,6.74 -1.38,1.11 -3.83,2.73 -6.99,4.24 -3.82,1.79 -7.81,2.93 -9.19,2.03 -1.38,-0.81 1.71,-7.81 3.25,-7.89 1.14,-0.08 1.95,-2.36 2.28,-3.42 0.49,-1.55 -0.16,-3.17 -1.06,-4.39 -0.89,-1.22 -1.87,0.57 -1.87,0.57 0,0 -0.73,2.03 -4.39,5.94 -4.15,4.47 -13.5,11.23 -16.19,9.03 -2.12,-1.71 2.12,-8.38 8.22,-13.1 8.7,-6.75 14.8,-5.94 16.43,-1.95 0.49,1.14 0.89,1.95 1.71,1.63 0.81,-0.33 0.98,-1.38 0.65,-1.95 -2.77,-5.69 -12.85,-5.69 -21.64,0.57 -5.78,4.07 -11.39,12.77 -7,15.86 4.39,3.09 14.48,-5.21 18.55,-9.35 0.33,-0.33 0.57,-0.08 0.41,0.24 -2.85,5.61 -3.25,7.89 -0.81,9.27 1.79,0.98 6.75,-0.24 10.82,-2.2 3.05,-1.47 5.04,-2.72 6.37,-3.7 -0.72,2.66 -0.61,4.92 1.11,5.9 1.79,0.98 6.83,-0.16 10.9,-2.12 2.49,-1.2 4.23,-2.3 5.5,-3.21 -1.09,2.83 -0.75,4.43 1,5.41 1.79,0.98 6.59,-0.24 10.66,-2.2 2,-0.96 3.51,-1.84 4.69,-2.62 -0.77,1.31 -1.38,2.39 -1.44,2.7 -0.16,0.89 1.38,3.33 2.36,1.71 2.52,-4.23 8.13,-9.27 11.96,-12.36 5.04,-4.07 8.38,-5.45 9.35,-4.64 0.73,0.65 0.57,2.28 -1.14,6.1 -1.55,3.42 -3.9,7.65 -4.56,9.19 -0.33,0.81 1.14,3.66 2.28,1.71 2.36,-3.9 7.56,-8.87 11.79,-12.61 4.23,-3.74 7.89,-5.45 9.19,-4.39 0.73,0.65 0.57,2.03 -1.14,4.8 -4.15,6.83 -6.67,10.58 -3.25,12.53 1.79,0.98 6.83,-0.16 10.9,-2.12 4.23,-2.03 6.34,-3.74 7.57,-4.72 2.03,-1.63 3.25,-2.85 3.17,-3.66 -0.08,-0.81 -0.73,-0.57 -2.03,0.49 z"
         id="path2"
         style="fill:#637b20;fill-opacity:1" />
    </g>
    <g
       id="g32"
       inkscape:label="g32">
      <path
         class="cls-2"
         d="M 87.85,17.66 C 86.57,14.96 84.9,12.53 82.93,10.4 L 82.8,10.47 78.27,7.36 78.96,6.81 C 76.38,4.86 73.49,3.3 70.4,2.19 29.27,-12.5 6.43,50.9 1.16,67.74 -0.16,71.96 -0.41,76.47 0.7,80.75 2.75,88.67 9.61,97.98 31.59,91.36 56.78,83.77 69.62,71.83 85.02,47.33 92.72,35.08 91.25,24.84 87.85,17.65 Z"
         id="path30" />
      <path
         class="cls-1"
         d="m 31.34,48.23 c -17,7.56 -26.93,22.37 -22.29,32.54 3.82,8.38 26.19,3.17 37.83,-6.51 8.95,-7.4 18.38,-20.17 13.99,-31.48 -8.3,-0.24 -19.03,0.81 -29.53,5.45 z"
         id="path31"
         style="fill:#637b20;fill-opacity:1" />
      <path
         class="cls-1"
         d="M 87.85,17.66 C 86.57,14.97 84.9,12.54 82.93,10.4 l 4.3,-2.25 -5.71,-3.37 -3.25,2.58 v 0 c 0,0 0.69,-0.55 0.69,-0.55 C 76.38,4.86 73.49,3.3 70.4,2.19 29.27,-12.5 6.43,50.9 1.16,67.74 -0.16,71.96 -0.41,76.47 0.7,80.75 2.75,88.67 9.61,97.98 31.59,91.36 56.78,83.77 69.62,71.83 85.02,47.33 92.72,35.08 91.25,24.84 87.85,17.65 Z M 72.17,10.9 c -6.51,0.24 -19.44,6.02 -19.85,13.02 -0.33,5.21 10,8.46 12.77,17.98 3.01,0.33 5.53,0.81 7.4,1.22 2.52,0.57 4.64,1.3 4.8,2.12 0.24,0.81 -0.57,0.89 -2.2,0.41 -1.14,-0.33 -0.89,-0.98 -2.03,-1.3 -1.79,-0.49 -4.47,-0.98 -7.73,-1.3 C 68.5,56.8 59.15,69.41 49.31,77.38 35.32,88.61 12.71,92.51 7.58,82.26 1.8,70.71 12.3,55.58 30.68,47.36 42.07,42.32 52.4,41.26 60.37,41.5 56.55,33.28 46.14,29.71 47.36,24.09 49.31,15.3 63.87,10.1 71.93,9.53 c 9.92,-0.73 7.65,8.22 4.72,11.96 -1.87,2.44 -3.42,5.04 -6.59,6.59 -3.17,1.55 -3.99,0.98 -5.29,-0.16 -1.55,-1.38 4.55,-5.86 6.91,-5.61 2.36,0.24 3.17,-1.46 3.17,-1.46 2.93,-3.5 5.69,-10.25 -2.68,-9.92 z"
         id="path32"
         style="fill:#637b20;fill-opacity:1;stroke:none" />
    </g>
    <path
       d="m 72.733275,82.153667 h 1.28 l 0.064,1.088 h 0.096 q 0.224,-0.704 0.704,-0.96 0.496,-0.256 1.168,-0.256 0.896,0 1.36,0.352 0.48,0.352 0.672,1.248 0.208,0.88 0.208,2.592 0,1.696 -0.192,2.592 -0.192,0.896 -0.672,1.264 -0.464,0.368 -1.36,0.368 -0.704,0 -1.152,-0.24 -0.448,-0.256 -0.672,-0.848 h -0.08 v 4.032 h -1.424 z m 2.752,7.024 q 0.656,0 0.912,-0.176 0.272,-0.192 0.368,-0.768 0.096,-0.592 0.096,-2 0,-1.408 -0.096,-1.984 -0.096,-0.576 -0.368,-0.752 -0.256,-0.192 -0.912,-0.192 -0.528,0 -0.816,0.208 -0.288,0.208 -0.4,0.72 -0.08,0.336 -0.096,0.768 -0.016,0.416 -0.016,1.232 0,1.328 0.08,1.824 0.112,0.624 0.4,0.88 0.288,0.24 0.848,0.24 z m 4.383999,-9.232 v -1.52 h 1.472 v 1.52 z m 0.032,10.368 v -8.16 h 1.424 v 8.16 z m 7.408008,-0.096 q -0.816,0.224 -1.744,0.224 -1.184,0 -1.744,-0.416 -0.56,-0.432 -0.736,-1.28 -0.16,-0.864 -0.16,-2.512 0,-1.648 0.192,-2.528 0.192,-0.88 0.736,-1.28 0.56,-0.4 1.68,-0.4 0.448,0 0.928,0.064 0.496,0.064 0.8,0.16 v 1.12 q -0.624,-0.144 -1.376,-0.144 -0.704,0 -1.024,0.224 -0.304,0.224 -0.416,0.832 -0.096,0.608 -0.096,1.952 0,1.376 0.096,1.984 0.112,0.592 0.432,0.816 0.32,0.208 1.024,0.208 0.784,0 1.408,-0.144 z m 5.584015,0 q -0.816,0.224 -1.744,0.224 -1.184,0 -1.744,-0.416 -0.56,-0.432 -0.736,-1.28 -0.16,-0.864 -0.16,-2.512 0,-1.648 0.192,-2.528 0.192,-0.88 0.736,-1.28 0.56,-0.4 1.68,-0.4 0.448,0 0.928,0.064 0.496,0.064 0.8,0.16 v 1.12 q -0.624,-0.144 -1.376,-0.144 -0.704,0 -1.024,0.224 -0.304,0.224 -0.416,0.832 -0.096,0.608 -0.096,1.952 0,1.376 0.096,1.984 0.112,0.592 0.432,0.816 0.32,0.208 1.024,0.208 0.784,0 1.408,-0.144 z m 4.016015,0.224 q -1.312,0 -1.904,-0.336 -0.576,-0.352 -0.752,-1.184 -0.16,-0.832 -0.16,-2.688 0,-1.856 0.16,-2.688 0.176,-0.832 0.752,-1.168 0.592,-0.352 1.904,-0.352 1.312,0 1.888,0.352 0.592,0.336 0.752,1.168 0.176,0.832 0.176,2.688 0,1.856 -0.176,2.688 -0.16,0.832 -0.752,1.184 -0.576,0.336 -1.888,0.336 z m 0,-1.2 q 0.688,0 0.96,-0.192 0.288,-0.208 0.352,-0.784 0.08,-0.576 0.08,-2.032 0,-1.456 -0.08,-2.032 -0.064,-0.576 -0.352,-0.768 -0.272,-0.208 -0.96,-0.208 -0.704,0 -0.976,0.208 -0.272,0.192 -0.352,0.768 -0.064,0.56 -0.064,2.032 0,1.472 0.064,2.048 0.08,0.56 0.352,0.768 0.272,0.192 0.976,0.192 z m 4.416008,1.072 v -11.888 h 1.424 v 11.888 z m 3.232,-10.368 v -1.52 h 1.472 v 1.52 z m 0.032,10.368 v -8.16 h 1.424 v 8.16 z m 8.608,3.184 q -1.12,0 -2.16,-0.144 v -1.104 q 0.336,0 0.848,0.032 l 1.024,0.016 q 0.896,0 1.28,-0.208 0.384,-0.208 0.496,-0.736 0.128,-0.528 0.128,-1.744 v -0.32 h -0.096 q -0.208,0.592 -0.656,0.832 -0.448,0.24 -1.152,0.24 -0.896,0 -1.376,-0.352 -0.464,-0.352 -0.656,-1.232 -0.192,-0.88 -0.192,-2.56 0,-1.712 0.192,-2.592 0.192,-0.896 0.656,-1.248 0.48,-0.352 1.376,-0.352 0.672,0 1.152,0.256 0.496,0.256 0.72,0.96 h 0.096 l 0.064,-1.088 h 1.296 v 7.024 q 0,1.728 -0.192,2.592 -0.192,0.88 -0.848,1.296 -0.64,0.432 -2,0.432 z m 0.272,-4.384 q 0.528,0 0.8,-0.208 0.288,-0.208 0.4,-0.704 0.144,-0.624 0.144,-1.984 0,-1.344 -0.112,-1.872 -0.112,-0.576 -0.4,-0.8 -0.272,-0.24 -0.832,-0.24 -0.656,0 -0.928,0.192 -0.256,0.176 -0.352,0.752 -0.08,0.576 -0.08,1.968 0,1.376 0.08,1.952 0.096,0.576 0.368,0.768 0.272,0.176 0.912,0.176 z m 9.80801,-2.432 h -4.032 q 0,1.184 0.112,1.696 0.112,0.496 0.464,0.688 0.368,0.176 1.232,0.176 0.88,0 2,-0.16 v 1.12 q -0.384,0.096 -1.04,0.16 -0.64,0.08 -1.248,0.08 -1.328,0 -1.952,-0.384 -0.608,-0.384 -0.8,-1.216 -0.176,-0.848 -0.176,-2.592 0,-1.728 0.16,-2.56 0.176,-0.848 0.768,-1.248 0.592,-0.416 1.904,-0.416 1.248,0 1.792,0.384 0.544,0.384 0.672,1.2 0.144,0.816 0.144,2.624 z m -2.64,-3.488 q -0.64,0 -0.928,0.176 -0.272,0.176 -0.368,0.672 -0.08,0.496 -0.096,1.648 h 2.672 v -0.128 q 0,-1.088 -0.112,-1.568 -0.096,-0.496 -0.352,-0.64 -0.256,-0.16 -0.816,-0.16 z m 6.336,7.248 q -0.528,0 -1.168,-0.064 -0.64,-0.064 -1.088,-0.144 v -1.12 q 0.96,0.144 2.032,0.144 0.56,0 0.848,-0.128 0.288,-0.128 0.368,-0.368 0.096,-0.256 0.096,-0.704 0,-0.528 -0.064,-0.752 -0.048,-0.24 -0.192,-0.304 -0.144,-0.08 -0.496,-0.128 l -1.536,-0.224 q -0.704,-0.112 -0.976,-0.592 -0.272,-0.496 -0.272,-1.632 0,-1.392 0.64,-1.888 0.656,-0.512 1.936,-0.512 0.528,0 1.088,0.064 0.576,0.064 0.912,0.16 v 1.12 q -0.8,-0.16 -1.872,-0.16 -0.72,0 -1.008,0.24 -0.288,0.224 -0.288,0.928 0,0.48 0.048,0.704 0.064,0.208 0.192,0.288 0.144,0.08 0.464,0.128 l 1.408,0.192 q 0.496,0.064 0.784,0.272 0.304,0.192 0.464,0.672 0.16,0.464 0.16,1.36 0,1.392 -0.592,1.92 -0.592,0.528 -1.888,0.528 z m 4.36801,-0.128 v -6.96 h -1.12 v -1.2 h 1.12 v -2.368 h 1.44 v 2.368 h 1.344 v 1.2 h -1.344 v 6.96 z m 4.00001,-10.368 v -1.52 h 1.472 v 1.52 z m 0.032,10.368 v -8.16 h 1.424 v 8.16 z m 6.336,-8.16 h 1.28 l 0.064,1.088 h 0.096 q 0.224,-0.704 0.704,-0.96 0.496,-0.256 1.168,-0.256 0.896,0 1.36,0.352 0.48,0.352 0.672,1.248 0.208,0.88 0.208,2.592 0,1.696 -0.192,2.592 -0.192,0.896 -0.672,1.264 -0.464,0.368 -1.36,0.368 -0.704,0 -1.152,-0.24 -0.448,-0.256 -0.672,-0.848 h -0.08 v 4.032 h -1.424 z m 2.752,7.024 q 0.656,0 0.912,-0.176 0.272,-0.192 0.368,-0.768 0.096,-0.592 0.096,-2 0,-1.408 -0.096,-1.984 -0.096,-0.576 -0.368,-0.752 -0.256,-0.192 -0.912,-0.192 -0.528,0 -0.816,0.208 -0.288,0.208 -0.4,0.72 -0.08,0.336 -0.096,0.768 -0.016,0.416 -0.016,1.232 0,1.328 0.08,1.824 0.112,0.624 0.4,0.88 0.288,0.24 0.848,0.24 z m 9.616,-2.496 h -4.032 q 0,1.184 0.112,1.696 0.112,0.496 0.464,0.688 0.368,0.176 1.232,0.176 0.88,0 2,-0.16 v 1.12 q -0.384,0.096 -1.04,0.16 -0.64,0.08 -1.248,0.08 -1.328,0 -1.952,-0.384 -0.608,-0.384 -0.8,-1.216 -0.176,-0.848 -0.176,-2.592 0,-1.728 0.16,-2.56 0.176,-0.848 0.768,-1.248 0.592,-0.416 1.904,-0.416 1.248,0 1.792,0.384 0.544,0.384 0.672,1.2 0.144,0.816 0.144,2.624 z m -2.64,-3.488 q -0.64,0 -0.928,0.176 -0.272,0.176 -0.368,0.672 -0.08,0.496 -0.096,1.648 h 2.672 v -0.128 q 0,-1.088 -0.112,-1.568 -0.096,-0.496 -0.352,-0.64 -0.256,-0.16 -0.816,-0.16 z m 4.272,-1.04 h 1.28 l 0.064,1.472 h 0.096 q 0.224,-0.912 0.72,-1.248 0.496,-0.352 1.328,-0.352 v 1.44 q -0.8,0 -1.248,0.32 -0.448,0.304 -0.64,0.976 -0.176,0.656 -0.176,1.76 v 3.792 h -1.424 z m 10.048,11.344 q -1.12,0 -2.16,-0.144 v -1.104 q 0.336,0 0.848,0.032 l 1.024,0.016 q 0.896,0 1.28,-0.208 0.384,-0.208 0.496,-0.736 0.128,-0.528 0.128,-1.744 v -0.32 h -0.096 q -0.208,0.592 -0.656,0.832 -0.448,0.24 -1.152,0.24 -0.896,0 -1.376,-0.352 -0.464,-0.352 -0.656,-1.232 -0.192,-0.88 -0.192,-2.56 0,-1.712 0.192,-2.592 0.192,-0.896 0.656,-1.248 0.48,-0.352 1.376,-0.352 0.672,0 1.152,0.256 0.496,0.256 0.72,0.96 h 0.096 l 0.064,-1.088 h 1.296 v 7.024 q 0,1.728 -0.192,2.592 -0.192,0.88 -0.848,1.296 -0.64,0.432 -2,0.432 z m 0.272,-4.384 q 0.528,0 0.8,-0.208 0.288,-0.208 0.4,-0.704 0.144,-0.624 0.144,-1.984 0,-1.344 -0.112,-1.872 -0.112,-0.576 -0.4,-0.8 -0.272,-0.24 -0.832,-0.24 -0.656,0 -0.928,0.192 -0.256,0.176 -0.352,0.752 -0.08,0.576 -0.08,1.968 0,1.376 0.08,1.952 0.096,0.576 0.368,0.768 0.272,0.176 0.912,0.176 z m 4.60801,-6.96 h 1.28 l 0.064,1.472 h 0.096 q 0.224,-0.912 0.72,-1.248 0.496,-0.352 1.328,-0.352 v 1.44 q -0.8,0 -1.248,0.32 -0.448,0.304 -0.64,0.976 -0.176,0.656 -0.176,1.76 v 3.792 h -1.424 z m 6.128,8.288 q -1.072,0 -1.552,-0.528 -0.464,-0.544 -0.464,-1.872 0,-0.928 0.176,-1.44 0.192,-0.528 0.624,-0.752 0.448,-0.24 1.248,-0.24 0.72,0 1.936,0.064 v -0.512 q 0,-0.928 -0.128,-1.312 -0.128,-0.4 -0.464,-0.512 -0.32,-0.112 -1.104,-0.112 -0.672,0 -1.904,0.144 v -1.104 q 1.072,-0.24 2.304,-0.24 1.152,0 1.728,0.288 0.576,0.288 0.784,0.96 0.208,0.656 0.208,1.92 v 5.12 h -1.296 l -0.064,-1.072 h -0.096 q -0.24,0.72 -0.752,0.96 -0.512,0.24 -1.184,0.24 z m 0.544,-1.2 q 0.448,0 0.736,-0.112 0.288,-0.112 0.448,-0.464 0.24,-0.56 0.24,-1.568 v -0.496 h -1.536 q -0.448,0 -0.672,0.096 -0.208,0.096 -0.288,0.368 -0.08,0.272 -0.08,0.864 0,0.56 0.08,0.832 0.096,0.272 0.336,0.384 0.24,0.096 0.736,0.096 z m 8.64,-3.6 q 0,-1.104 -0.096,-1.568 -0.08,-0.48 -0.32,-0.624 -0.24,-0.144 -0.816,-0.144 -0.624,0 -0.912,0.288 -0.272,0.288 -0.352,0.832 -0.064,0.528 -0.064,1.632 v 4.256 h -1.424 v -8.16 h 1.28 l 0.064,1.088 h 0.096 q 0.208,-0.608 0.672,-0.912 0.464,-0.304 1.264,-0.304 0.864,0 1.296,0.32 0.432,0.32 0.576,0.96 0.16,0.64 0.16,1.808 v 5.2 h -1.424 z m 5.216,4.8 q -0.896,0 -1.376,-0.352 -0.464,-0.352 -0.656,-1.232 -0.192,-0.896 -0.192,-2.608 0,-1.696 0.192,-2.592 0.192,-0.896 0.656,-1.264 0.464,-0.368 1.36,-0.368 0.72,0 1.168,0.256 0.448,0.24 0.672,0.816 h 0.08 v -4.672 h 1.424 v 11.888 h -1.296 l -0.064,-1.072 h -0.096 q -0.208,0.704 -0.704,0.96 -0.48,0.24 -1.168,0.24 z m 0.576,-1.28 q 0.512,0 0.784,-0.176 0.288,-0.192 0.4,-0.64 0.096,-0.368 0.112,-0.848 0.032,-0.496 0.032,-1.344 0,-1.264 -0.096,-1.808 -0.112,-0.576 -0.4,-0.816 -0.288,-0.24 -0.864,-0.24 -0.624,0 -0.896,0.192 -0.272,0.192 -0.368,0.784 -0.08,0.576 -0.08,1.968 0,1.408 0.096,1.984 0.096,0.576 0.352,0.768 0.272,0.176 0.928,0.176 z m 4.576,-9.216 v -1.52 h 1.472 v 1.52 z m 0.032,10.368 v -8.16 h 1.424 v 8.16 z m 6.832,-6.96 h -1.12 v -1.2 h 1.12 v -1.136 q 0,-1.2 0.256,-1.744 0.256,-0.544 0.816,-0.688 0.576,-0.16 1.808,-0.16 v 1.088 q -0.64,0 -0.944,0.096 -0.288,0.08 -0.4,0.336 -0.096,0.24 -0.096,0.8 v 1.408 h 1.44 v 1.2 h -1.44 v 6.96 h -1.44 z m 4.14402,-1.2 h 1.28 l 0.064,1.472 h 0.096 q 0.224,-0.912 0.72,-1.248 0.496,-0.352 1.328,-0.352 v 1.44 q -0.8,0 -1.248,0.32 -0.448,0.304 -0.64,0.976 -0.176,0.656 -0.176,1.76 v 3.792 h -1.424 z m 8.72001,7.072 h -0.096 q -0.208,0.608 -0.672,0.912 -0.464,0.304 -1.264,0.304 -0.864,0 -1.296,-0.32 -0.432,-0.32 -0.592,-0.96 -0.144,-0.64 -0.144,-1.808 v -5.2 h 1.424 v 4.672 q 0,1.104 0.08,1.584 0.096,0.464 0.336,0.608 0.24,0.144 0.8,0.144 0.64,0 0.912,-0.288 0.288,-0.288 0.352,-0.816 0.08,-0.544 0.08,-1.648 v -4.256 h 1.424 v 8.16 h -1.28 z m 3.696,1.088 v -6.96 h -1.12 v -1.2 h 1.12 v -2.368 h 1.44 v 2.368 h 1.344 v 1.2 h -1.344 v 6.96 z m 4.52802,0 v -6.96 h -1.12 v -1.2 h 1.12 v -2.368 h 1.44 v 2.368 h 1.344 v 1.2 h -1.344 v 6.96 z m 4.00001,-10.368 v -1.52 h 1.472 v 1.52 z m 0.032,10.368 v -8.16 h 1.424 v 8.16 z"
       id="text1"
       style="font-weight:500;font-stretch:condensed;font-size:16px;font-family:'Saira Condensed';-inkscape-font-specification:'Saira Condensed,  Medium Condensed';fill:#637b20;fill-opacity:1"
       inkscape:label="text1"
       aria-label="piccoli gesti per grandi frutti" />
  </g>
</svg>
