<?xml version="1.0" encoding="UTF-8"?>
<svg id="Livello_2" xmlns="http://www.w3.org/2000/svg" viewBox="0 0 203.79 93.61">
  <defs>
    <style>
      .cls-1 {
        fill: #874d1c;
      }

      .cls-2 {
        fill: #874c1b;
      }
    </style>
  </defs>
  <g id="Livello_1-2" data-name="Livello_1">
    <g>
      <path class="cls-1" d="M146.76,45.39c.73-1.54-.65-3.66-1.14-4.39-.57-.73-1.46-.57-1.63.08-.16.57,0,.57-.57,1.38-1.55,2.28-1.79,2.77-.57,4.31,1.22,1.55,2.68.9,3.9-1.38Z"/>
      <path class="cls-1" d="M201.75,60.76c-.89.73-.41,1.3-1.3,2.12-1.14,1.06-3.9,3.09-7.65,4.88-3.82,1.79-7.81,2.85-9.19,1.95-1.79-1.14.16-3.5,4.31-9.52,2.52-3.66,6.26-8.7,2.03-9.92-3.33-.98-9.52,3.5-13.18,6.75-3.91,3.5-5.86,5.12-7,6.26-.24.24-.41,0-.16-.41,1.63-2.77,7.08-11.31,2.77-12.61-3.34-.98-8.54,3.25-13.26,7-3.82,3.09-6.34,5.29-7.48,6.18-.16.16-.33,0-.16-.24.49-.73,4.96-8.05,5.53-9.03.24-.41.65-1.38.24-2.2-1.06-2.11-2.03-2.85-3.42-1.06-1.38,1.79-3.01,3.82-2.77,5.69.24,1.87-.08,2.44-.81,3.66-.33.55-1.35,2.18-2.38,3.87-1.44,1.06-3.52,2.39-6.08,3.61-3.82,1.79-7.65,3.01-8.95,2.03-1.95-1.46,2.77-8.13,3.82-9.76.98-1.46,3.34-4.8,3.74-5.61.24-.41.33-1.38-.08-2.2-1.38-3.01-2.03-2.52-3.01-1.3-1.63,2.03-3.01,3.33-2.52,5.12.33,1.14-.24,1.87-1.06,3.09-1.14,1.84-2.03,3.4-2.68,4.75-1.44,1.1-3.66,2.55-6.43,3.87-3.82,1.79-7.81,2.85-9.19,1.95-2.28-1.46.89-7.24,3.58-11.96,2.12-3.74,9.52-15.46,16.68-27.25,1.87-3.09,4.72-7.48,5.29-8.46.24-.41.65-1.38.24-2.2-1.06-2.12-2.03-2.85-3.42-1.06-1.38,1.79-3.01,3.82-2.77,5.69s-.24,2.6-1.22,4.39c-.73,1.3-14.64,23.75-17.16,27.82-1.3,2.09-2.54,4.49-3.34,6.74-1.38,1.11-3.83,2.73-6.99,4.24-3.82,1.79-7.81,2.93-9.19,2.03-1.38-.81,1.71-7.81,3.25-7.89,1.14-.08,1.95-2.36,2.28-3.42.49-1.55-.16-3.17-1.06-4.39-.89-1.22-1.87.57-1.87.57,0,0-.73,2.03-4.39,5.94-4.15,4.47-13.5,11.23-16.19,9.03-2.12-1.71,2.12-8.38,8.22-13.1,8.7-6.75,14.8-5.94,16.43-1.95.49,1.14.89,1.95,1.71,1.63.81-.33.98-1.38.65-1.95-2.77-5.69-12.85-5.69-21.64.57-5.78,4.07-11.39,12.77-7,15.86,4.39,3.09,14.48-5.21,18.55-9.35.33-.33.57-.08.41.24-2.85,5.61-3.25,7.89-.81,9.27,1.79.98,6.75-.24,10.82-2.2,3.05-1.47,5.04-2.72,6.37-3.7-.72,2.66-.61,4.92,1.11,5.9,1.79.98,6.83-.16,10.9-2.12,2.49-1.2,4.23-2.3,5.5-3.21-1.09,2.83-.75,4.43,1,5.41,1.79.98,6.59-.24,10.66-2.2,2-.96,3.51-1.84,4.69-2.62-.77,1.31-1.38,2.39-1.44,2.7-.16.89,1.38,3.33,2.36,1.71,2.52-4.23,8.13-9.27,11.96-12.36,5.04-4.07,8.38-5.45,9.35-4.64.73.65.57,2.28-1.14,6.1-1.55,3.42-3.9,7.65-4.56,9.19-.33.81,1.14,3.66,2.28,1.71,2.36-3.9,7.56-8.87,11.79-12.61,4.23-3.74,7.89-5.45,9.19-4.39.73.65.57,2.03-1.14,4.8-4.15,6.83-6.67,10.58-3.25,12.53,1.79.98,6.83-.16,10.9-2.12,4.23-2.03,6.34-3.74,7.57-4.72,2.03-1.63,3.25-2.85,3.17-3.66-.08-.81-.73-.57-2.03.49Z"/>
    </g>
    <g>
      <path class="cls-1" d="M112.8,80.76c0,.37-.03.72-.1,1.03-.06.31-.16.58-.29.8-.13.23-.29.4-.47.53-.19.13-.41.19-.66.19-.29,0-.53-.09-.73-.27-.2-.18-.33-.42-.41-.71h0v3.15h-.64v-7.13h.62v.86h.02c.08-.3.21-.54.39-.73s.44-.29.76-.29c.24,0,.45.06.64.19s.35.31.48.53c.13.23.23.5.29.81.07.31.1.66.1,1.03ZM112.14,80.74c0-.28-.02-.54-.06-.78-.04-.24-.1-.45-.18-.63s-.19-.32-.31-.43c-.13-.1-.28-.15-.45-.15s-.32.05-.45.15c-.13.1-.23.25-.32.43s-.15.39-.19.63-.06.5-.06.78.02.55.06.79.11.46.19.63c.09.18.2.32.32.42s.28.15.45.15.33-.05.45-.15c.12-.1.23-.24.31-.42.08-.18.15-.39.18-.63.04-.25.06-.51.06-.79Z"/>
      <path class="cls-1" d="M114.75,76.88c0,.14-.04.25-.13.33s-.18.13-.3.13c-.12,0-.22-.04-.31-.13-.08-.09-.12-.2-.12-.33s.04-.24.12-.33c.08-.09.18-.14.31-.14s.22.04.3.14c.08.09.12.2.12.33ZM114,83.15v-4.8h.64v4.8h-.64Z"/>
      <path class="cls-1" d="M117.5,83.31c-.27,0-.51-.06-.72-.19s-.38-.3-.52-.52c-.14-.22-.24-.49-.31-.8-.07-.31-.11-.66-.11-1.04s.04-.73.11-1.04c.07-.31.18-.58.32-.81.14-.23.32-.4.52-.52.21-.12.45-.18.72-.18.25,0,.46.04.63.13.17.09.31.2.42.32l-.34.46c-.08-.11-.17-.2-.29-.26s-.25-.1-.41-.1c-.17,0-.33.05-.45.15-.13.1-.23.24-.32.42s-.15.39-.19.63c-.04.24-.06.51-.06.8s.02.54.06.78.1.45.19.62c.08.17.19.31.32.41.13.1.29.15.47.15.16,0,.3-.03.42-.1.12-.07.22-.16.3-.29l.29.49c-.26.33-.61.49-1.07.49Z"/>
      <path class="cls-1" d="M120.75,83.31c-.27,0-.51-.06-.72-.19s-.38-.3-.52-.52c-.14-.22-.24-.49-.31-.8-.07-.31-.11-.66-.11-1.04s.04-.73.11-1.04c.07-.31.18-.58.32-.81.14-.23.32-.4.52-.52.21-.12.45-.18.72-.18.25,0,.46.04.63.13.17.09.31.2.42.32l-.34.46c-.08-.11-.17-.2-.29-.26s-.25-.1-.41-.1c-.17,0-.33.05-.45.15-.13.1-.23.24-.32.42s-.15.39-.19.63c-.04.24-.06.51-.06.8s.02.54.06.78.1.45.19.62c.08.17.19.31.32.41.13.1.29.15.47.15.16,0,.3-.03.42-.1.12-.07.22-.16.3-.29l.29.49c-.26.33-.61.49-1.07.49Z"/>
      <path class="cls-1" d="M125.7,80.76c0,.38-.04.73-.12,1.04-.08.31-.19.58-.33.8-.14.23-.32.4-.53.52-.21.12-.44.18-.7.18s-.49-.06-.7-.18c-.21-.12-.38-.3-.53-.52-.15-.23-.26-.49-.33-.8-.08-.31-.12-.66-.12-1.04s.04-.73.11-1.05.18-.59.32-.81c.14-.23.32-.4.53-.52s.45-.18.71-.18.49.06.7.18c.21.12.39.3.53.52.14.23.25.5.33.81.08.32.12.67.12,1.05ZM125.04,80.75c0-.28-.02-.55-.06-.79-.04-.24-.1-.46-.19-.63-.08-.18-.19-.32-.31-.42-.13-.1-.28-.15-.45-.15s-.33.05-.46.15c-.13.1-.23.24-.32.42-.08.18-.14.39-.18.63-.04.25-.06.51-.06.79s.02.54.06.78.1.45.18.63c.08.18.19.32.32.42.13.1.28.15.46.15s.33-.05.46-.15c.13-.1.23-.24.31-.42s.14-.39.18-.63.06-.5.06-.78Z"/>
      <path class="cls-1" d="M126.9,83.15v-7.32h.64v7.32h-.64Z"/>
      <path class="cls-1" d="M129.78,76.88c0,.14-.04.25-.13.33s-.18.13-.3.13c-.12,0-.22-.04-.31-.13-.08-.09-.12-.2-.12-.33s.04-.24.12-.33c.08-.09.18-.14.31-.14s.22.04.3.14c.08.09.12.2.12.33ZM129.03,83.15v-4.8h.64v4.8h-.64Z"/>
      <path class="cls-1" d="M135.98,83.08c0,.34-.03.66-.08.95-.05.29-.15.54-.28.76-.13.21-.3.38-.52.5-.22.12-.49.18-.82.18s-.61-.07-.89-.22-.5-.34-.66-.59l.42-.45c.13.2.29.36.49.48.2.12.42.18.66.18.21,0,.39-.04.53-.14.14-.09.25-.22.32-.38.08-.16.13-.35.16-.57.03-.22.05-.46.05-.73v-.79h-.02c-.08.29-.21.53-.39.73-.18.19-.44.29-.76.29-.25,0-.46-.06-.65-.19-.19-.13-.35-.31-.47-.54-.13-.23-.23-.5-.3-.81-.07-.31-.1-.66-.1-1.03s.03-.72.1-1.03c.06-.31.16-.58.29-.8.13-.22.28-.4.47-.52s.41-.19.65-.19c.29,0,.54.09.74.27.2.18.34.41.41.7h.03v-.81h.62v4.74ZM135.36,80.75c0-.28-.02-.54-.06-.79-.04-.25-.11-.46-.19-.64s-.2-.32-.32-.43c-.13-.1-.28-.15-.45-.15s-.32.05-.45.15c-.13.1-.23.24-.32.42s-.14.39-.18.63c-.04.25-.06.51-.06.79s.02.54.06.78.1.45.18.63c.08.18.19.32.32.43s.28.15.45.15.32-.05.45-.15.23-.24.32-.42c.09-.18.15-.39.19-.63s.06-.5.06-.79Z"/>
      <path class="cls-1" d="M137.82,80.89c0,.27.02.51.07.73.05.22.11.42.2.58.09.17.2.29.33.39.13.09.29.14.47.14.23,0,.42-.07.56-.21.14-.14.25-.31.33-.51l.48.28c-.12.29-.29.54-.52.73-.23.2-.52.3-.88.3-.54,0-.95-.23-1.25-.68-.3-.45-.45-1.07-.45-1.87,0-.38.04-.72.12-1.04.08-.32.19-.59.33-.81.14-.23.32-.4.53-.53.21-.13.44-.19.7-.19.28,0,.52.06.72.18s.36.29.48.5c.12.21.21.46.27.75s.08.59.08.91v.35h-2.58ZM139.76,80.35c0-.48-.08-.87-.22-1.17-.15-.29-.38-.44-.7-.44-.19,0-.35.06-.47.17-.13.11-.23.25-.31.42-.08.16-.14.34-.18.53-.04.19-.05.35-.05.49h1.94Z"/>
      <path class="cls-1" d="M143.4,79.18c-.08-.14-.19-.26-.32-.34-.13-.09-.29-.13-.48-.13-.21,0-.38.08-.51.23-.13.15-.2.35-.2.6,0,.26.06.45.19.56s.32.22.58.32c.13.05.26.11.39.19s.24.17.34.28c.1.11.18.24.25.39.06.15.1.33.1.55,0,.47-.13.84-.38,1.1s-.59.39-.99.39c-.27,0-.52-.06-.75-.19-.23-.13-.41-.29-.56-.51l.39-.42c.11.17.24.31.39.41.15.11.33.16.54.16.23,0,.41-.08.55-.25.14-.16.21-.38.21-.65,0-.16-.03-.29-.08-.39-.05-.11-.12-.19-.2-.27-.08-.07-.18-.13-.29-.18s-.22-.1-.33-.14c-.12-.05-.24-.1-.35-.17s-.21-.15-.3-.25c-.09-.1-.16-.23-.22-.37-.05-.14-.08-.32-.08-.53s.03-.38.1-.55c.07-.17.16-.31.29-.43.12-.12.26-.21.42-.28.16-.07.33-.1.52-.1.27,0,.5.05.7.16.2.11.36.24.48.41l-.38.42Z"/>
      <path class="cls-1" d="M146.16,83.24c-.1.03-.21.04-.32.04-.34,0-.57-.12-.71-.35s-.21-.54-.21-.93v-3.13h-.63v-.52h.62v-1.33h.63v1.33h.85v.52h-.85v3.01c0,.29.04.5.13.63.08.13.21.2.38.2.06,0,.12,0,.18-.02.06-.02.12-.03.16-.05l.03.51c-.07.03-.16.06-.26.09Z"/>
      <path class="cls-1" d="M148.02,76.88c0,.14-.04.25-.13.33s-.18.13-.3.13c-.12,0-.22-.04-.31-.13-.08-.09-.12-.2-.12-.33s.04-.24.12-.33c.08-.09.18-.14.31-.14s.22.04.3.14c.08.09.12.2.12.33ZM147.28,83.15v-4.8h.64v4.8h-.64Z"/>
      <path class="cls-1" d="M154.51,80.76c0,.37-.03.72-.1,1.03-.06.31-.16.58-.29.8-.13.23-.29.4-.47.53-.19.13-.41.19-.66.19-.29,0-.53-.09-.73-.27-.2-.18-.33-.42-.41-.71h0v3.15h-.64v-7.13h.62v.86h.02c.08-.3.21-.54.39-.73s.44-.29.76-.29c.24,0,.45.06.64.19s.35.31.48.53c.13.23.23.5.29.81.07.31.1.66.1,1.03ZM153.86,80.74c0-.28-.02-.54-.06-.78-.04-.24-.1-.45-.18-.63s-.19-.32-.31-.43c-.13-.1-.28-.15-.45-.15s-.32.05-.45.15c-.13.1-.23.25-.32.43s-.15.39-.19.63-.06.5-.06.78.02.55.06.79.11.46.19.63c.09.18.2.32.32.42s.28.15.45.15.33-.05.45-.15c.12-.1.23-.24.31-.42.08-.18.15-.39.18-.63.04-.25.06-.51.06-.79Z"/>
      <path class="cls-1" d="M156.06,80.89c0,.27.02.51.07.73.05.22.11.42.2.58.09.17.2.29.33.39.13.09.29.14.47.14.23,0,.42-.07.56-.21.14-.14.25-.31.33-.51l.48.28c-.12.29-.29.54-.52.73-.23.2-.52.3-.88.3-.54,0-.95-.23-1.25-.68-.3-.45-.45-1.07-.45-1.87,0-.38.04-.72.12-1.04.08-.32.19-.59.33-.81.14-.23.32-.4.53-.53.21-.13.44-.19.7-.19.28,0,.52.06.72.18s.36.29.48.5c.12.21.21.46.27.75s.08.59.08.91v.35h-2.58ZM158.01,80.35c0-.48-.08-.87-.22-1.17-.15-.29-.38-.44-.7-.44-.19,0-.35.06-.47.17-.13.11-.23.25-.31.42-.08.16-.14.34-.18.53-.04.19-.05.35-.05.49h1.94Z"/>
      <path class="cls-1" d="M160.91,78.48c.19-.19.4-.28.64-.28.05,0,.09,0,.12,0l-.02.66s-.05-.01-.07-.01c-.02,0-.05,0-.08,0-.16,0-.3.05-.43.16-.13.11-.23.25-.31.43-.08.17-.15.37-.19.6s-.06.44-.06.66v2.45h-.64v-3.59c0-.1,0-.21,0-.33,0-.12,0-.24,0-.35,0-.11,0-.22,0-.31,0-.09,0-.17-.01-.22h.62c.01.12.02.28.03.46,0,.18,0,.38,0,.59h.02c.09-.42.23-.72.42-.91Z"/>
      <path class="cls-1" d="M167.28,83.08c0,.34-.03.66-.08.95-.05.29-.15.54-.28.76-.13.21-.3.38-.52.5-.22.12-.49.18-.82.18s-.61-.07-.89-.22-.5-.34-.66-.59l.42-.45c.13.2.29.36.49.48.2.12.42.18.66.18.21,0,.39-.04.53-.14.14-.09.25-.22.32-.38.08-.16.13-.35.16-.57.03-.22.05-.46.05-.73v-.79h-.02c-.08.29-.21.53-.39.73-.18.19-.44.29-.76.29-.25,0-.46-.06-.65-.19-.19-.13-.35-.31-.47-.54-.13-.23-.23-.5-.3-.81-.07-.31-.1-.66-.1-1.03s.03-.72.1-1.03c.06-.31.16-.58.29-.8.13-.22.28-.4.47-.52s.41-.19.65-.19c.29,0,.54.09.74.27.2.18.34.41.41.7h.03v-.81h.62v4.74ZM166.66,80.75c0-.28-.02-.54-.06-.79-.04-.25-.11-.46-.19-.64s-.2-.32-.32-.43c-.13-.1-.28-.15-.45-.15s-.32.05-.45.15c-.13.1-.23.24-.32.42s-.14.39-.18.63c-.04.25-.06.51-.06.79s.02.54.06.78.1.45.18.63c.08.18.19.32.32.43s.28.15.45.15.32-.05.45-.15.23-.24.32-.42c.09-.18.15-.39.19-.63s.06-.5.06-.79Z"/>
      <path class="cls-1" d="M169.86,78.48c.19-.19.4-.28.64-.28.05,0,.09,0,.12,0l-.02.66s-.05-.01-.07-.01c-.02,0-.05,0-.08,0-.16,0-.3.05-.43.16-.13.11-.23.25-.31.43-.08.17-.15.37-.19.6s-.06.44-.06.66v2.45h-.64v-3.59c0-.1,0-.21,0-.33,0-.12,0-.24,0-.35,0-.11,0-.22,0-.31,0-.09,0-.17-.01-.22h.62c.01.12.02.28.03.46,0,.18,0,.38,0,.59h.02c.09-.42.23-.72.42-.91Z"/>
      <path class="cls-1" d="M173.38,83.15c0-.05-.01-.12-.01-.19,0-.08,0-.16,0-.25,0-.09,0-.17,0-.25v-.21h-.02c-.16.68-.55,1.03-1.16,1.03-.14,0-.27-.03-.41-.08-.14-.05-.26-.14-.37-.25-.11-.12-.2-.26-.27-.44-.07-.18-.11-.39-.11-.64,0-.35.06-.63.18-.84s.28-.38.46-.5c.19-.12.39-.21.62-.25s.43-.06.63-.06h.38v-.25c0-.42-.08-.73-.23-.92-.16-.19-.37-.29-.63-.29-.18,0-.35.05-.5.15-.16.1-.29.22-.4.37l-.34-.4c.15-.21.34-.38.58-.49s.48-.17.72-.17c.5,0,.86.16,1.08.49s.32.81.32,1.44v2c0,.06,0,.15,0,.24,0,.1,0,.2,0,.29,0,.1,0,.19.01.28,0,.09.01.16.02.21h-.55ZM173.3,80.71h-.39c-.15,0-.31.01-.46.04-.15.03-.29.08-.41.16-.12.08-.22.19-.3.33-.08.14-.12.33-.12.55,0,.33.07.58.22.73s.31.22.48.22.33-.05.46-.16c.13-.11.23-.25.3-.42.07-.17.13-.35.16-.55s.05-.39.05-.58v-.33Z"/>
      <path class="cls-1" d="M177.74,83.15v-3.1c0-.15,0-.3-.02-.45-.02-.15-.05-.29-.11-.42-.06-.13-.13-.23-.23-.31-.1-.08-.23-.12-.39-.12s-.3.04-.43.13c-.13.09-.23.21-.32.36-.09.15-.15.33-.2.52-.05.2-.07.4-.07.62v2.77h-.64v-3.59c0-.1,0-.21,0-.33,0-.12,0-.24,0-.35,0-.11,0-.22,0-.31,0-.09,0-.17-.01-.22h.62c.01.12.02.27.03.45,0,.17,0,.34,0,.49h.02c.09-.32.24-.59.45-.79.21-.2.46-.3.77-.3.26,0,.47.05.62.16.16.11.28.25.36.43.08.18.14.38.17.6.03.22.04.44.04.66v3.1h-.64Z"/>
      <path class="cls-1" d="M182.23,83.15v-.86h-.02c-.08.29-.21.53-.39.73-.18.19-.44.29-.76.29-.25,0-.46-.06-.65-.19-.19-.13-.35-.31-.47-.54-.13-.23-.23-.5-.3-.81-.07-.31-.1-.66-.1-1.03s.03-.72.1-1.03c.06-.31.16-.58.29-.8.13-.22.28-.4.47-.52s.41-.19.65-.19c.29,0,.54.09.74.27.2.18.33.41.41.7h.02v-3.33h.64v7.32h-.62ZM182.23,80.75c0-.28-.02-.55-.06-.79-.04-.25-.11-.46-.19-.63s-.2-.32-.32-.42c-.13-.1-.28-.15-.45-.15s-.32.05-.45.15c-.13.1-.23.24-.32.42s-.14.39-.18.63c-.04.25-.06.51-.06.79s.02.54.06.78.1.45.18.63c.08.18.19.32.32.43s.28.15.45.15.32-.05.45-.15.23-.25.32-.43c.09-.18.15-.39.19-.63s.06-.5.06-.78Z"/>
      <path class="cls-1" d="M185.09,76.88c0,.14-.04.25-.13.33s-.18.13-.3.13c-.12,0-.22-.04-.31-.13-.08-.09-.12-.2-.12-.33s.04-.24.12-.33c.08-.09.18-.14.31-.14s.22.04.3.14c.08.09.12.2.12.33ZM184.34,83.15v-4.8h.64v4.8h-.64Z"/>
      <path class="cls-1" d="M189.9,76.27c-.1-.03-.19-.05-.28-.05-.13,0-.24.03-.32.1-.09.06-.16.15-.21.25-.05.1-.09.22-.11.35-.02.13-.03.27-.03.41v1.02h.81v.52h-.81v4.28h-.64v-4.28h-.65v-.52h.65v-1.02c0-.49.1-.89.3-1.2s.51-.46.94-.46c.15,0,.28.02.4.06l-.05.53Z"/>
      <path class="cls-1" d="M191.65,78.48c.19-.19.4-.28.64-.28.05,0,.09,0,.12,0l-.02.66s-.05-.01-.07-.01c-.02,0-.05,0-.08,0-.16,0-.3.05-.43.16-.13.11-.23.25-.31.43-.08.17-.15.37-.19.6s-.06.44-.06.66v2.45h-.64v-3.59c0-.1,0-.21,0-.33,0-.12,0-.24,0-.35,0-.11,0-.22,0-.31,0-.09,0-.17-.01-.22h.62c.01.12.02.28.03.46,0,.18,0,.38,0,.59h.02c.09-.42.23-.72.42-.91Z"/>
      <path class="cls-1" d="M193.81,78.35v3.1c0,.15,0,.3.02.45.02.15.05.29.11.42s.13.23.23.31c.1.08.23.12.4.12s.3-.04.43-.13c.13-.09.23-.21.32-.36.09-.15.16-.33.2-.52.05-.2.07-.4.07-.62v-2.77h.64v3.59c0,.1,0,.21,0,.33,0,.12,0,.24,0,.35,0,.11,0,.22,0,.31,0,.1,0,.17.01.21h-.62c-.01-.12-.02-.27-.03-.45,0-.17,0-.34,0-.49h-.02c-.09.32-.24.59-.45.79-.21.2-.46.31-.77.31-.26,0-.47-.06-.62-.17s-.28-.25-.36-.43-.14-.38-.17-.6c-.03-.22-.04-.44-.04-.67v-3.1h.64Z"/>
      <path class="cls-1" d="M199.06,83.24c-.1.03-.21.04-.32.04-.34,0-.57-.12-.71-.35s-.21-.54-.21-.93v-3.13h-.63v-.52h.62v-1.33h.63v1.33h.85v.52h-.85v3.01c0,.29.04.5.13.63.08.13.21.2.38.2.06,0,.12,0,.18-.02.06-.02.12-.03.16-.05l.03.51c-.07.03-.16.06-.26.09Z"/>
      <path class="cls-1" d="M201.37,83.24c-.1.03-.21.04-.32.04-.34,0-.57-.12-.71-.35s-.21-.54-.21-.93v-3.13h-.63v-.52h.62v-1.33h.63v1.33h.85v.52h-.85v3.01c0,.29.04.5.13.63.08.13.21.2.38.2.06,0,.12,0,.18-.02.06-.02.12-.03.16-.05l.03.51c-.07.03-.16.06-.26.09Z"/>
      <path class="cls-1" d="M203.24,76.88c0,.14-.04.25-.13.33s-.18.13-.3.13c-.12,0-.22-.04-.31-.13-.08-.09-.12-.2-.12-.33s.04-.24.12-.33c.08-.09.18-.14.31-.14s.22.04.3.14c.08.09.12.2.12.33ZM202.49,83.15v-4.8h.64v4.8h-.64Z"/>
    </g>
    <g>
      <path class="cls-2" d="M31.34,48.23c-17,7.56-26.93,22.37-22.29,32.54,3.82,8.38,26.19,3.17,37.83-6.51,8.95-7.4,18.38-20.17,13.99-31.48-8.3-.24-19.03.81-29.53,5.45Z"/>
      <path class="cls-2" d="M87.85,17.66c-1.28-2.7-2.95-5.13-4.92-7.26l-.13.07h0s4.43-2.32,4.43-2.32l-5.71-3.37-2.56,2.03c-2.58-1.95-5.47-3.51-8.56-4.62C29.27-12.5,6.43,50.9,1.16,67.74c-1.32,4.22-1.57,8.73-.46,13.01,2.05,7.92,8.91,17.23,30.89,10.61,25.19-7.59,38.03-19.53,53.43-44.03,7.7-12.25,6.23-22.49,2.83-29.68ZM72.17,10.9c-6.51.24-19.44,6.02-19.85,13.02-.33,5.21,10,8.46,12.77,17.98,3.01.33,5.53.81,7.4,1.22,2.52.57,4.64,1.3,4.8,2.12.24.81-.57.89-2.2.41-1.14-.33-.89-.98-2.03-1.3-1.79-.49-4.47-.98-7.73-1.3,3.17,13.75-6.18,26.36-16.02,34.33-13.99,11.23-36.6,15.13-41.73,4.88-5.78-11.55,4.72-26.68,23.1-34.9,11.39-5.04,21.72-6.1,29.69-5.86-3.82-8.22-14.23-11.79-13.01-17.41,1.95-8.79,16.51-13.99,24.57-14.56,9.92-.73,7.65,8.22,4.72,11.96-1.87,2.44-3.42,5.04-6.59,6.59-3.17,1.55-3.99.98-5.29-.16-1.55-1.38,4.55-5.86,6.91-5.61,2.36.24,3.17-1.46,3.17-1.46,2.93-3.5,5.69-10.25-2.68-9.92Z"/>
    </g>
  </g>
</svg>