<?xml version="1.0" encoding="UTF-8"?>
<svg id="Livello_2" xmlns="http://www.w3.org/2000/svg" viewBox="0 0 90.62 93.61">
  <defs>
    <style>
      .cls-1 {
        fill: #5a8f30;
      }
    </style>
  </defs>
  <g id="Livello_1-2" data-name="Livello_1">
    <g>
      <path class="cls-1" d="M31.42,48.23c-17,7.56-26.93,22.37-22.29,32.54,3.82,8.38,26.19,3.17,37.83-6.51,8.95-7.4,18.38-20.17,13.99-31.48-8.3-.24-19.03.81-29.53,5.45Z"/>
      <path class="cls-1" d="M87.85,17.66c-1.28-2.7-2.95-5.13-4.92-7.26l-.13.07-4.53-3.11.69-.55c-2.58-1.95-5.47-3.51-8.56-4.62C29.27-12.5,6.43,50.9,1.16,67.74c-1.32,4.22-1.57,8.73-.46,13.01,2.05,7.92,8.91,17.23,30.89,10.61,25.19-7.59,38.03-19.53,53.43-44.03,7.7-12.25,6.23-22.49,2.83-29.68ZM72.26,10.9c-6.51.24-19.44,6.02-19.85,13.02-.33,5.21,10.01,8.46,12.77,17.98,3.01.33,5.53.81,7.4,1.22,2.52.57,4.64,1.3,4.8,2.12.24.81-.57.89-2.2.41-1.14-.33-.89-.98-2.03-1.3-1.79-.49-4.47-.98-7.73-1.3,3.17,13.75-6.18,26.36-16.03,34.33-13.99,11.23-36.6,15.13-41.73,4.88-5.78-11.55,4.72-26.68,23.1-34.9,11.39-5.04,21.72-6.1,29.69-5.86-3.82-8.22-14.23-11.79-13.01-17.41,1.95-8.79,16.51-13.99,24.57-14.56,9.92-.73,7.65,8.22,4.72,11.96-1.87,2.44-3.42,5.04-6.59,6.59-3.17,1.55-3.99.98-5.29-.16-1.55-1.38,4.55-5.86,6.91-5.61,2.36.24,3.17-1.46,3.17-1.46,2.93-3.5,5.69-10.25-2.68-9.92Z"/>
    </g>
  </g>
</svg>